<?xml version="1.0" encoding="UTF-8"?>
<svg version="1.1" xmlns="http://www.w3.org/2000/svg" viewBox="0 0 512 512">
<path d="M0 0 C1.31157326 -0.00472824 1.31157326 -0.00472824 2.64964294 -0.009552 C4.07615929 -0.00651566 4.07615929 -0.00651566 5.53149414 -0.00341797 C6.50196182 -0.00437469 7.4724295 -0.00533142 8.4723053 -0.00631714 C10.52938908 -0.00699912 12.58647501 -0.00514361 14.64355469 -0.00097656 C17.79960961 0.00436569 20.95552184 -0.000918 24.11157227 -0.00732422 C26.10571321 -0.00666333 28.09985406 -0.00538194 30.09399414 -0.00341797 C31.0429808 -0.0054422 31.99196747 -0.00746643 32.9697113 -0.009552 C34.2860128 -0.00482376 34.2860128 -0.00482376 35.62890625 0 C36.79020302 0.00119339 36.79020302 0.00119339 37.97496033 0.00241089 C39.87915039 0.12939453 39.87915039 0.12939453 41.87915039 1.12939453 C44.20992382 1.43731322 46.54156935 1.63834727 48.88305664 1.84814453 C50.87915039 2.12939453 50.87915039 2.12939453 51.87915039 3.12939453 C53.20696918 3.33543538 54.54210934 3.49569043 55.87915039 3.62939453 C59.76803928 4.01828342 59.76803928 4.01828342 60.87915039 5.12939453 C62.80809489 5.36219818 64.73732486 5.59298987 66.66821289 5.80908203 C69.85640221 6.27097518 72.80696381 7.16933622 75.87915039 8.12939453 C75.87915039 8.78939453 75.87915039 9.44939453 75.87915039 10.12939453 C76.60102539 10.06751953 77.32290039 10.00564453 78.06665039 9.94189453 C81.46914622 10.16872759 82.99988454 11.34699186 85.87915039 13.12939453 C88.19321259 13.86015101 90.52743908 14.53077711 92.87915039 15.12939453 C93.68352539 15.33564453 94.48790039 15.54189453 95.31665039 15.75439453 C95.83227539 15.87814453 96.34790039 16.00189453 96.87915039 16.12939453 C96.87915039 16.78939453 96.87915039 17.44939453 96.87915039 18.12939453 C97.47727539 18.27376953 98.07540039 18.41814453 98.69165039 18.56689453 C100.44065444 19.01663843 102.16592062 19.55831794 103.87915039 20.12939453 C103.87915039 20.78939453 103.87915039 21.44939453 103.87915039 22.12939453 C105.52915039 22.12939453 107.17915039 22.12939453 108.87915039 22.12939453 C108.87915039 22.78939453 108.87915039 23.44939453 108.87915039 24.12939453 C109.43602539 24.23251953 109.99290039 24.33564453 110.56665039 24.44189453 C113.35606049 25.27117862 115.49305679 26.47238509 117.87915039 28.12939453 C117.87915039 28.78939453 117.87915039 29.44939453 117.87915039 30.12939453 C119.19915039 30.12939453 120.51915039 30.12939453 121.87915039 30.12939453 C121.87915039 30.78939453 121.87915039 31.44939453 121.87915039 32.12939453 C122.49790039 32.27376953 123.11665039 32.41814453 123.75415039 32.56689453 C125.87915039 33.12939453 125.87915039 33.12939453 127.87915039 34.12939453 C127.87915039 34.78939453 127.87915039 35.44939453 127.87915039 36.12939453 C128.53915039 36.12939453 129.19915039 36.12939453 129.87915039 36.12939453 C129.87915039 36.78939453 129.87915039 37.44939453 129.87915039 38.12939453 C131.19915039 38.12939453 132.51915039 38.12939453 133.87915039 38.12939453 C133.87915039 38.78939453 133.87915039 39.44939453 133.87915039 40.12939453 C134.53915039 40.12939453 135.19915039 40.12939453 135.87915039 40.12939453 C135.87915039 40.78939453 135.87915039 41.44939453 135.87915039 42.12939453 C136.53915039 42.12939453 137.19915039 42.12939453 137.87915039 42.12939453 C137.87915039 42.78939453 137.87915039 43.44939453 137.87915039 44.12939453 C138.53915039 44.12939453 139.19915039 44.12939453 139.87915039 44.12939453 C139.87915039 44.78939453 139.87915039 45.44939453 139.87915039 46.12939453 C141.19915039 46.12939453 142.51915039 46.12939453 143.87915039 46.12939453 C143.87915039 46.78939453 143.87915039 47.44939453 143.87915039 48.12939453 C144.53915039 48.12939453 145.19915039 48.12939453 145.87915039 48.12939453 C145.87915039 48.78939453 145.87915039 49.44939453 145.87915039 50.12939453 C146.53915039 50.12939453 147.19915039 50.12939453 147.87915039 50.12939453 C150.00415039 52.00439453 150.00415039 52.00439453 151.87915039 54.12939453 C151.87915039 54.78939453 151.87915039 55.44939453 151.87915039 56.12939453 C152.53915039 56.12939453 153.19915039 56.12939453 153.87915039 56.12939453 C153.87915039 56.78939453 153.87915039 57.44939453 153.87915039 58.12939453 C154.53915039 58.12939453 155.19915039 58.12939453 155.87915039 58.12939453 C155.87915039 58.78939453 155.87915039 59.44939453 155.87915039 60.12939453 C156.53915039 60.12939453 157.19915039 60.12939453 157.87915039 60.12939453 C157.87915039 60.78939453 157.87915039 61.44939453 157.87915039 62.12939453 C158.53915039 62.12939453 159.19915039 62.12939453 159.87915039 62.12939453 C161.87915039 65.12939453 161.87915039 65.12939453 161.87915039 68.12939453 C162.53915039 68.12939453 163.19915039 68.12939453 163.87915039 68.12939453 C163.87915039 68.78939453 163.87915039 69.44939453 163.87915039 70.12939453 C164.53915039 70.12939453 165.19915039 70.12939453 165.87915039 70.12939453 C165.87915039 70.78939453 165.87915039 71.44939453 165.87915039 72.12939453 C166.53915039 72.12939453 167.19915039 72.12939453 167.87915039 72.12939453 C169.87915039 75.12939453 169.87915039 75.12939453 169.87915039 78.12939453 C170.53915039 78.12939453 171.19915039 78.12939453 171.87915039 78.12939453 C171.87915039 78.78939453 171.87915039 79.44939453 171.87915039 80.12939453 C172.53915039 80.12939453 173.19915039 80.12939453 173.87915039 80.12939453 C173.87915039 81.44939453 173.87915039 82.76939453 173.87915039 84.12939453 C174.53915039 84.12939453 175.19915039 84.12939453 175.87915039 84.12939453 C177.87915039 87.12939453 177.87915039 87.12939453 177.87915039 90.12939453 C178.53915039 90.12939453 179.19915039 90.12939453 179.87915039 90.12939453 C180.88899769 92.04089121 181.88669534 93.95881022 182.87915039 95.87939453 C183.43602539 96.94673828 183.99290039 98.01408203 184.56665039 99.11376953 C185.87915039 102.12939453 185.87915039 102.12939453 185.87915039 106.12939453 C186.53915039 106.12939453 187.19915039 106.12939453 187.87915039 106.12939453 C187.87915039 107.44939453 187.87915039 108.76939453 187.87915039 110.12939453 C188.53915039 110.12939453 189.19915039 110.12939453 189.87915039 110.12939453 C192.09705851 116.08329351 194.19606873 121.99816847 195.87915039 128.12939453 C196.25040039 129.14001953 196.62165039 130.15064453 197.00415039 131.19189453 C197.93464429 134.31569548 198.03347616 136.88855333 197.87915039 140.12939453 C198.53915039 140.12939453 199.19915039 140.12939453 199.87915039 140.12939453 C199.93973633 140.75587891 200.00032227 141.38236328 200.06274414 142.02783203 C200.18842773 143.25373047 200.18842773 143.25373047 200.31665039 144.50439453 C200.39786133 145.31650391 200.47907227 146.12861328 200.56274414 146.96533203 C200.77005153 149.17212258 200.77005153 149.17212258 201.87915039 151.12939453 C202.02144764 153.09001597 202.10541055 155.05501036 202.16040039 157.02001953 C202.1977832 158.20466797 202.23516602 159.38931641 202.27368164 160.60986328 C202.30848633 161.85380859 202.34329102 163.09775391 202.37915039 164.37939453 C202.44835924 166.82221073 202.52115593 169.26492846 202.59790039 171.70751953 C202.62819336 172.79452148 202.65848633 173.88152344 202.68969727 175.00146484 C202.87768688 178.10523155 203.35793914 181.06694503 203.87915039 184.12939453 C203.81939329 186.40288043 203.68908833 188.67515525 203.50415039 190.94189453 C203.40360352 192.24126953 203.30305664 193.54064453 203.19946289 194.87939453 C203.11873535 195.90806641 203.11873535 195.90806641 203.03637695 196.95751953 C202.87091838 199.24310873 202.7412343 201.52847805 202.62133789 203.81689453 C202.58057129 204.58799561 202.53980469 205.35909668 202.49780273 206.15356445 C202.41975517 207.65879036 202.3444815 209.16416311 202.2722168 210.66967773 C201.98964235 215.90841062 201.98964235 215.90841062 200.87915039 218.12939453 C200.56869513 220.72083358 200.36941127 223.31311185 200.16040039 225.91455078 C199.87915039 228.12939453 199.87915039 228.12939453 198.87915039 229.12939453 C198.75540039 230.18126953 198.63165039 231.23314453 198.50415039 232.31689453 C197.86958001 236.18777386 196.61658251 238.65453029 194.87915039 242.12939453 C194.75540039 243.18126953 194.63165039 244.23314453 194.50415039 245.31689453 C193.36794519 252.24774623 189.79398172 258.35315975 186.62915039 264.56689453 C185.30155006 267.26950949 184.50829339 269.2667939 183.87915039 272.12939453 C183.21915039 272.12939453 182.55915039 272.12939453 181.87915039 272.12939453 C181.73477539 272.74814453 181.59040039 273.36689453 181.44165039 274.00439453 C180.87915039 276.12939453 180.87915039 276.12939453 179.87915039 278.12939453 C179.21915039 278.12939453 178.55915039 278.12939453 177.87915039 278.12939453 C177.77602539 278.85126953 177.67290039 279.57314453 177.56665039 280.31689453 C176.81121092 283.40732874 175.72383724 285.54683294 173.87915039 288.12939453 C173.21915039 288.12939453 172.55915039 288.12939453 171.87915039 288.12939453 C171.21915039 290.10939453 170.55915039 292.08939453 169.87915039 294.12939453 C169.21915039 294.12939453 168.55915039 294.12939453 167.87915039 294.12939453 C167.79665039 294.74814453 167.71415039 295.36689453 167.62915039 296.00439453 C166.87915039 298.12939453 166.87915039 298.12939453 164.94165039 299.06689453 C162.11035404 300.52544114 161.94864744 302.20610261 160.87915039 305.12939453 C159.37915039 306.94189453 159.37915039 306.94189453 157.87915039 308.12939453 C157.21915039 308.12939453 156.55915039 308.12939453 155.87915039 308.12939453 C155.61102539 308.89251953 155.34290039 309.65564453 155.06665039 310.44189453 C153.92780534 313.01928071 153.06498368 314.39894317 150.87915039 316.12939453 C150.21915039 316.12939453 149.55915039 316.12939453 148.87915039 316.12939453 C148.87915039 316.78939453 148.87915039 317.44939453 148.87915039 318.12939453 C146.30712995 320.92835795 143.56815509 323.41741727 140.62915039 325.81689453 C137.86172845 327.83362673 137.86172845 327.83362673 136.87915039 330.12939453 C135.88915039 330.12939453 134.89915039 330.12939453 133.87915039 330.12939453 C133.87915039 330.78939453 133.87915039 331.44939453 133.87915039 332.12939453 C132.88915039 332.45939453 131.89915039 332.78939453 130.87915039 333.12939453 C129.71858388 334.30047342 128.56051539 335.47418502 127.41821289 336.66308594 C124.35916494 339.57752788 120.83556258 341.90218169 117.37915039 344.31689453 C116.6327832 344.84992188 115.88641602 345.38294922 115.11743164 345.93212891 C111.49009422 348.48410523 108.14167864 350.75083877 103.87915039 352.12939453 C103.87915039 352.78939453 103.87915039 353.44939453 103.87915039 354.12939453 C102.55915039 354.12939453 101.23915039 354.12939453 99.87915039 354.12939453 C99.87915039 354.78939453 99.87915039 355.44939453 99.87915039 356.12939453 C95.52620921 360.12939453 95.52620921 360.12939453 91.87915039 360.12939453 C91.87915039 360.78939453 91.87915039 361.44939453 91.87915039 362.12939453 C91.3596582 362.37173828 90.84016602 362.61408203 90.30493164 362.86376953 C86.03640609 364.91518661 82.55388466 367.11422795 78.87915039 370.12939453 C72.60517779 374.12939453 72.60517779 374.12939453 69.87915039 374.12939453 C69.87915039 374.78939453 69.87915039 375.44939453 69.87915039 376.12939453 C66.79105344 377.89402136 65.64602903 378.12939453 61.87915039 378.12939453 C61.87915039 378.78939453 61.87915039 379.44939453 61.87915039 380.12939453 C56.96832704 384.87652377 50.31587416 387.98381994 43.87915039 390.12939453 C43.87915039 390.78939453 43.87915039 391.44939453 43.87915039 392.12939453 C40.79105344 393.89402136 39.64602903 394.12939453 35.87915039 394.12939453 C35.87915039 394.78939453 35.87915039 395.44939453 35.87915039 396.12939453 C35.21915039 396.12939453 34.55915039 396.12939453 33.87915039 396.12939453 C33.87915039 396.78939453 33.87915039 397.44939453 33.87915039 398.12939453 C31.89915039 398.78939453 29.91915039 399.44939453 27.87915039 400.12939453 C27.87915039 400.78939453 27.87915039 401.44939453 27.87915039 402.12939453 C26.55915039 402.12939453 25.23915039 402.12939453 23.87915039 402.12939453 C23.87915039 402.78939453 23.87915039 403.44939453 23.87915039 404.12939453 C17.30606102 404.59890091 13.5291829 403.38172417 7.87915039 400.12939453 C6.54955695 399.45529995 5.21718648 398.78657155 3.87915039 398.12939453 C3.87915039 397.46939453 3.87915039 396.80939453 3.87915039 396.12939453 C3.21915039 396.12939453 2.55915039 396.12939453 1.87915039 396.12939453 C1.87915039 395.46939453 1.87915039 394.80939453 1.87915039 394.12939453 C0.77313477 393.96697266 0.77313477 393.96697266 -0.35522461 393.80126953 C-3.28598902 393.08927592 -4.93780796 392.12758001 -7.37084961 390.37939453 C-11.1892891 387.7230888 -15.08043693 385.40918629 -19.17553711 383.20751953 C-20.87383203 382.26629584 -22.50527709 381.20644288 -24.12084961 380.12939453 C-24.12084961 379.46939453 -24.12084961 378.80939453 -24.12084961 378.12939453 C-25.44084961 378.12939453 -26.76084961 378.12939453 -28.12084961 378.12939453 C-28.12084961 377.46939453 -28.12084961 376.80939453 -28.12084961 376.12939453 C-29.11084961 376.12939453 -30.10084961 376.12939453 -31.12084961 376.12939453 C-31.12084961 375.46939453 -31.12084961 374.80939453 -31.12084961 374.12939453 C-32.11084961 374.12939453 -33.10084961 374.12939453 -34.12084961 374.12939453 C-34.12084961 373.46939453 -34.12084961 372.80939453 -34.12084961 372.12939453 C-34.78084961 372.12939453 -35.44084961 372.12939453 -36.12084961 372.12939453 C-36.12084961 371.46939453 -36.12084961 370.80939453 -36.12084961 370.12939453 C-37.77084961 370.12939453 -39.42084961 370.12939453 -41.12084961 370.12939453 C-41.12084961 369.46939453 -41.12084961 368.80939453 -41.12084961 368.12939453 C-42.11084961 368.12939453 -43.10084961 368.12939453 -44.12084961 368.12939453 C-44.12084961 367.46939453 -44.12084961 366.80939453 -44.12084961 366.12939453 C-44.78084961 366.12939453 -45.44084961 366.12939453 -46.12084961 366.12939453 C-46.12084961 365.46939453 -46.12084961 364.80939453 -46.12084961 364.12939453 C-46.65709961 364.02626953 -47.19334961 363.92314453 -47.74584961 363.81689453 C-50.74587005 362.94846756 -53.35880311 361.57319157 -56.12084961 360.12939453 C-56.12084961 359.46939453 -56.12084961 358.80939453 -56.12084961 358.12939453 C-56.78084961 358.12939453 -57.44084961 358.12939453 -58.12084961 358.12939453 C-58.12084961 357.46939453 -58.12084961 356.80939453 -58.12084961 356.12939453 C-58.69319336 356.01466797 -59.26553711 355.89994141 -59.85522461 355.78173828 C-62.33556617 355.06757097 -64.18453658 354.05631581 -66.37084961 352.69189453 C-67.43045898 352.04414062 -67.43045898 352.04414062 -68.51147461 351.38330078 C-69.04256836 350.96951172 -69.57366211 350.55572266 -70.12084961 350.12939453 C-70.12084961 349.46939453 -70.12084961 348.80939453 -70.12084961 348.12939453 C-72.10084961 347.46939453 -74.08084961 346.80939453 -76.12084961 346.12939453 C-76.12084961 345.46939453 -76.12084961 344.80939453 -76.12084961 344.12939453 C-76.88397461 343.84064453 -77.64709961 343.55189453 -78.43334961 343.25439453 C-81.12084961 342.12939453 -81.12084961 342.12939453 -84.12084961 340.12939453 C-84.12084961 339.46939453 -84.12084961 338.80939453 -84.12084961 338.12939453 C-85.11084961 338.12939453 -86.10084961 338.12939453 -87.12084961 338.12939453 C-87.12084961 337.46939453 -87.12084961 336.80939453 -87.12084961 336.12939453 C-88.77084961 335.46939453 -90.42084961 334.80939453 -92.12084961 334.12939453 C-92.12084961 333.46939453 -92.12084961 332.80939453 -92.12084961 332.12939453 C-92.78084961 332.12939453 -93.44084961 332.12939453 -94.12084961 332.12939453 C-94.12084961 331.46939453 -94.12084961 330.80939453 -94.12084961 330.12939453 C-94.67772461 330.06751953 -95.23459961 330.00564453 -95.80834961 329.94189453 C-99.07181448 328.79527174 -100.76139867 326.60984296 -103.12084961 324.12939453 C-104.11084961 323.46939453 -105.10084961 322.80939453 -106.12084961 322.12939453 C-106.12084961 321.46939453 -106.12084961 320.80939453 -106.12084961 320.12939453 C-106.78084961 320.12939453 -107.44084961 320.12939453 -108.12084961 320.12939453 C-110.24584961 318.25439453 -110.24584961 318.25439453 -112.12084961 316.12939453 C-112.12084961 315.46939453 -112.12084961 314.80939453 -112.12084961 314.12939453 C-112.78084961 314.12939453 -113.44084961 314.12939453 -114.12084961 314.12939453 C-114.12084961 313.46939453 -114.12084961 312.80939453 -114.12084961 312.12939453 C-114.78084961 312.12939453 -115.44084961 312.12939453 -116.12084961 312.12939453 C-116.45084961 310.80939453 -116.78084961 309.48939453 -117.12084961 308.12939453 C-118.11084961 308.12939453 -119.10084961 308.12939453 -120.12084961 308.12939453 C-120.12084961 307.46939453 -120.12084961 306.80939453 -120.12084961 306.12939453 C-120.78084961 306.12939453 -121.44084961 306.12939453 -122.12084961 306.12939453 C-124.12084961 303.12939453 -124.12084961 303.12939453 -124.12084961 300.12939453 C-124.98709961 299.82001953 -124.98709961 299.82001953 -125.87084961 299.50439453 C-128.96562597 297.61314231 -130.31272591 295.22903517 -132.12084961 292.12939453 C-132.12084961 291.46939453 -132.12084961 290.80939453 -132.12084961 290.12939453 C-132.78084961 290.12939453 -133.44084961 290.12939453 -134.12084961 290.12939453 C-136.12084961 287.12939453 -136.12084961 287.12939453 -136.12084961 284.12939453 C-136.78084961 284.12939453 -137.44084961 284.12939453 -138.12084961 284.12939453 C-138.79239894 282.84025966 -139.4579382 281.54799249 -140.12084961 280.25439453 C-140.49209961 279.53509766 -140.86334961 278.81580078 -141.24584961 278.07470703 C-142.12084961 276.12939453 -142.12084961 276.12939453 -142.12084961 274.12939453 C-142.78084961 274.12939453 -143.44084961 274.12939453 -144.12084961 274.12939453 C-144.12084961 272.80939453 -144.12084961 271.48939453 -144.12084961 270.12939453 C-144.78084961 270.12939453 -145.44084961 270.12939453 -146.12084961 270.12939453 C-146.38639648 269.44232422 -146.65194336 268.75525391 -146.92553711 268.04736328 C-147.27874023 267.14630859 -147.63194336 266.24525391 -147.99584961 265.31689453 C-148.51791992 263.97691406 -148.51791992 263.97691406 -149.05053711 262.60986328 C-150.10917116 259.95227862 -150.10917116 259.95227862 -152.12084961 257.12939453 C-152.24584961 254.44189453 -152.24584961 254.44189453 -152.12084961 252.12939453 C-152.78084961 252.12939453 -153.44084961 252.12939453 -154.12084961 252.12939453 C-155.28604782 248.94451944 -156.12895497 246.06570956 -156.55834961 242.69189453 C-156.97793084 239.06289403 -156.97793084 239.06289403 -158.62084961 235.69189453 C-160.31434877 231.66983402 -160.67457999 228.44333415 -161.12084961 224.12939453 C-161.45084961 223.79939453 -161.78084961 223.46939453 -162.12084961 223.12939453 C-162.32923976 221.48832211 -162.48836686 219.8408316 -162.62084961 218.19189453 C-162.87299904 214.52381988 -162.87299904 214.52381988 -164.12084961 211.12939453 C-164.21614736 209.50596607 -164.24879941 207.87866388 -164.25024414 206.25244141 C-164.2533963 205.2379895 -164.25654846 204.2235376 -164.25979614 203.17834473 C-164.25777191 202.07937866 -164.25574768 200.9804126 -164.25366211 199.84814453 C-164.25461884 198.72371948 -164.25557556 197.59929443 -164.25656128 196.4407959 C-164.25724269 194.06013941 -164.2553911 191.67948106 -164.2512207 189.29882812 C-164.24587194 185.64465176 -164.25116703 181.99059831 -164.25756836 178.33642578 C-164.25690757 176.02783176 -164.25562639 173.71923781 -164.25366211 171.41064453 C-164.25568634 170.31167847 -164.25771057 169.2127124 -164.25979614 168.08044434 C-164.25664398 167.06599243 -164.25349182 166.05154053 -164.25024414 165.00634766 C-164.24944855 164.11081177 -164.24865295 163.21527588 -164.24783325 162.29260254 C-164.12084961 160.12939453 -164.12084961 160.12939453 -163.12084961 158.12939453 C-162.96531484 156.44443454 -162.84563232 154.75607323 -162.74584961 153.06689453 C-162.36899585 148.42308365 -161.4258101 144.50010445 -159.82006836 140.14501953 C-158.90796398 137.51571305 -158.47400853 134.88403414 -158.12084961 132.12939453 C-157.46084961 132.12939453 -156.80084961 132.12939453 -156.12084961 132.12939453 C-156.18272461 131.13939453 -156.24459961 130.14939453 -156.30834961 129.12939453 C-156.29083326 124.73279073 -154.78377438 121.1376395 -153.12084961 117.12939453 C-152.74573242 116.11232422 -152.37061523 115.09525391 -151.98413086 114.04736328 C-149.79815116 108.12384102 -147.4498186 102.58908609 -144.25756836 97.14111328 C-142.61379699 94.23203336 -141.37220731 91.22485833 -140.12084961 88.12939453 C-139.46084961 88.12939453 -138.80084961 88.12939453 -138.12084961 88.12939453 C-137.46084961 86.14939453 -136.80084961 84.16939453 -136.12084961 82.12939453 C-135.46084961 82.12939453 -134.80084961 82.12939453 -134.12084961 82.12939453 C-134.12084961 81.46939453 -134.12084961 80.80939453 -134.12084961 80.12939453 C-133.46084961 80.12939453 -132.80084961 80.12939453 -132.12084961 80.12939453 C-132.12084961 78.80939453 -132.12084961 77.48939453 -132.12084961 76.12939453 C-131.46084961 76.12939453 -130.80084961 76.12939453 -130.12084961 76.12939453 C-129.46084961 74.14939453 -128.80084961 72.16939453 -128.12084961 70.12939453 C-127.46084961 70.12939453 -126.80084961 70.12939453 -126.12084961 70.12939453 C-126.12084961 69.46939453 -126.12084961 68.80939453 -126.12084961 68.12939453 C-125.46084961 68.12939453 -124.80084961 68.12939453 -124.12084961 68.12939453 C-123.86432617 67.55447266 -123.60780273 66.97955078 -123.34350586 66.38720703 C-122.00444782 63.9144417 -120.44934094 62.08093199 -118.55834961 60.00439453 C-116.04405745 57.26901408 -116.04405745 57.26901408 -114.12084961 54.12939453 C-113.54334961 53.88189453 -112.96584961 53.63439453 -112.37084961 53.37939453 C-110.05704211 52.09394592 -109.15523136 51.05959582 -107.55834961 49.00439453 C-106.75397461 48.05564453 -105.94959961 47.10689453 -105.12084961 46.12939453 C-104.13084961 46.12939453 -103.14084961 46.12939453 -102.12084961 46.12939453 C-102.12084961 45.46939453 -102.12084961 44.80939453 -102.12084961 44.12939453 C-101.46084961 44.12939453 -100.80084961 44.12939453 -100.12084961 44.12939453 C-100.12084961 43.46939453 -100.12084961 42.80939453 -100.12084961 42.12939453 C-99.46084961 42.12939453 -98.80084961 42.12939453 -98.12084961 42.12939453 C-98.12084961 41.46939453 -98.12084961 40.80939453 -98.12084961 40.12939453 C-95.12084961 38.12939453 -95.12084961 38.12939453 -92.12084961 38.12939453 C-92.12084961 37.46939453 -92.12084961 36.80939453 -92.12084961 36.12939453 C-91.46084961 36.12939453 -90.80084961 36.12939453 -90.12084961 36.12939453 C-90.12084961 35.46939453 -90.12084961 34.80939453 -90.12084961 34.12939453 C-87.12084961 32.12939453 -87.12084961 32.12939453 -84.12084961 32.12939453 C-84.12084961 31.46939453 -84.12084961 30.80939453 -84.12084961 30.12939453 C-82.80084961 30.12939453 -81.48084961 30.12939453 -80.12084961 30.12939453 C-80.12084961 29.46939453 -80.12084961 28.80939453 -80.12084961 28.12939453 C-78.07397461 26.62158203 -78.07397461 26.62158203 -75.37084961 25.00439453 C-74.48913086 24.46556641 -73.60741211 23.92673828 -72.69897461 23.37158203 C-70.12084961 22.12939453 -70.12084961 22.12939453 -66.12084961 22.12939453 C-66.12084961 21.46939453 -66.12084961 20.80939453 -66.12084961 20.12939453 C-59.20751548 15.77098823 -52.11875531 13.65212747 -44.12084961 12.12939453 C-44.12084961 11.46939453 -44.12084961 10.80939453 -44.12084961 10.12939453 C-42.47084961 10.12939453 -40.82084961 10.12939453 -39.12084961 10.12939453 C-39.12084961 9.46939453 -39.12084961 8.80939453 -39.12084961 8.12939453 C-35.47983271 6.69215102 -32.18240691 5.98199555 -28.30834961 5.69189453 C-23.99422556 5.33668971 -20.41156594 4.30989821 -16.36694336 2.82470703 C-13.22961403 1.853499 -10.13568519 1.57839296 -6.87084961 1.34033203 C-4.23369988 1.0224613 -2.99439434 0.00308031 0 0 Z M10.87915039 19.12939453 C7.24528606 19.44653178 3.61067347 19.64110489 -0.03100586 19.84814453 C-2.98993446 19.78511378 -2.98993446 19.78511378 -4.12084961 21.12939453 C-7.75297063 21.8197977 -11.39034536 22.42861759 -15.03881836 23.02392578 C-18.89849486 23.35454225 -18.89849486 23.35454225 -22.12084961 25.12939453 C-24.77548082 25.58399311 -27.44274099 25.83182691 -30.12084961 26.12939453 C-30.12084961 26.78939453 -30.12084961 27.44939453 -30.12084961 28.12939453 C-31.77084961 28.12939453 -33.42084961 28.12939453 -35.12084961 28.12939453 C-35.12084961 28.78939453 -35.12084961 29.44939453 -35.12084961 30.12939453 C-35.8362793 30.26216797 -36.55170898 30.39494141 -37.28881836 30.53173828 C-40.06273282 31.11712989 -42.72384236 31.86097897 -45.43334961 32.69189453 C-46.75786133 33.09601562 -46.75786133 33.09601562 -48.10913086 33.50830078 C-48.77299805 33.71326172 -49.43686523 33.91822266 -50.12084961 34.12939453 C-50.12084961 34.78939453 -50.12084961 35.44939453 -50.12084961 36.12939453 C-51.44084961 36.12939453 -52.76084961 36.12939453 -54.12084961 36.12939453 C-54.12084961 36.78939453 -54.12084961 37.44939453 -54.12084961 38.12939453 C-55.44084961 38.12939453 -56.76084961 38.12939453 -58.12084961 38.12939453 C-58.12084961 38.78939453 -58.12084961 39.44939453 -58.12084961 40.12939453 C-59.44084961 40.12939453 -60.76084961 40.12939453 -62.12084961 40.12939453 C-62.12084961 40.78939453 -62.12084961 41.44939453 -62.12084961 42.12939453 C-63.44084961 42.12939453 -64.76084961 42.12939453 -66.12084961 42.12939453 C-66.12084961 42.78939453 -66.12084961 43.44939453 -66.12084961 44.12939453 C-66.78084961 44.12939453 -67.44084961 44.12939453 -68.12084961 44.12939453 C-68.12084961 44.78939453 -68.12084961 45.44939453 -68.12084961 46.12939453 C-68.97936523 46.30148438 -68.97936523 46.30148438 -69.85522461 46.47705078 C-72.33556617 47.19121809 -74.18453658 48.20247325 -76.37084961 49.56689453 C-77.07725586 49.99873047 -77.78366211 50.43056641 -78.51147461 50.87548828 C-79.04256836 51.28927734 -79.57366211 51.70306641 -80.12084961 52.12939453 C-80.12084961 52.78939453 -80.12084961 53.44939453 -80.12084961 54.12939453 C-82.10084961 54.78939453 -84.08084961 55.44939453 -86.12084961 56.12939453 C-86.12084961 56.78939453 -86.12084961 57.44939453 -86.12084961 58.12939453 C-86.78084961 58.12939453 -87.44084961 58.12939453 -88.12084961 58.12939453 C-88.12084961 58.78939453 -88.12084961 59.44939453 -88.12084961 60.12939453 C-88.78084961 60.12939453 -89.44084961 60.12939453 -90.12084961 60.12939453 C-90.12084961 60.78939453 -90.12084961 61.44939453 -90.12084961 62.12939453 C-90.78084961 62.12939453 -91.44084961 62.12939453 -92.12084961 62.12939453 C-92.12084961 62.78939453 -92.12084961 63.44939453 -92.12084961 64.12939453 C-92.73959961 64.37689453 -93.35834961 64.62439453 -93.99584961 64.87939453 C-96.47153648 66.33568092 -97.07209963 67.50751959 -98.12084961 70.12939453 C-98.78084961 70.12939453 -99.44084961 70.12939453 -100.12084961 70.12939453 C-100.12084961 70.78939453 -100.12084961 71.44939453 -100.12084961 72.12939453 C-100.78084961 72.12939453 -101.44084961 72.12939453 -102.12084961 72.12939453 C-102.12084961 72.78939453 -102.12084961 73.44939453 -102.12084961 74.12939453 C-102.78084961 74.12939453 -103.44084961 74.12939453 -104.12084961 74.12939453 C-104.12084961 74.78939453 -104.12084961 75.44939453 -104.12084961 76.12939453 C-104.78084961 76.12939453 -105.44084961 76.12939453 -106.12084961 76.12939453 C-107.90390485 78.76831629 -109.11144582 81.10118317 -110.12084961 84.12939453 C-110.78084961 84.12939453 -111.44084961 84.12939453 -112.12084961 84.12939453 C-113.78703582 86.30427013 -115.31069119 88.46651433 -116.80834961 90.75439453 C-117.25605713 91.43373047 -117.70376465 92.11306641 -118.16503906 92.81298828 C-122.3878637 99.34061683 -125.81535257 106.09063025 -129.12084961 113.12939453 C-129.7446571 114.3819421 -130.37101145 115.63322412 -130.99975586 116.88330078 C-134.55522881 124.06044633 -137.08831181 130.7829004 -138.61303711 138.71533203 C-139.12084961 141.12939453 -139.12084961 141.12939453 -140.12084961 142.12939453 C-140.32689046 143.45721332 -140.4871455 144.79235348 -140.62084961 146.12939453 C-141.0097385 150.01828342 -141.0097385 150.01828342 -142.12084961 151.12939453 C-142.28584961 152.28439453 -142.45084961 153.43939453 -142.62084961 154.62939453 C-143.12084961 158.12939453 -143.12084961 158.12939453 -144.12084961 159.12939453 C-144.2300146 160.77451954 -144.2699161 162.42429926 -144.28198242 164.07299805 C-144.29158997 165.12822159 -144.30119751 166.18344513 -144.31109619 167.27064514 C-144.31534607 168.4215715 -144.31959595 169.57249786 -144.32397461 170.75830078 C-144.32967468 171.93649887 -144.33537476 173.11469696 -144.34124756 174.32859802 C-144.3507186 176.83127947 -144.35723984 179.33397351 -144.36108398 181.83666992 C-144.3707467 185.65126701 -144.40173321 189.46531567 -144.43334961 193.27978516 C-144.43988366 195.7101205 -144.44513255 198.1404597 -144.44897461 200.57080078 C-144.46132141 201.70755753 -144.47366821 202.84431427 -144.48638916 204.01551819 C-144.46835901 210.48770732 -143.77141162 215.22016571 -141.12084961 221.12939453 C-140.54167518 223.26540962 -139.99570208 225.41093744 -139.49584961 227.56689453 C-138.90298992 231.15098751 -138.90298992 231.15098751 -137.12084961 234.12939453 C-136.97647461 235.20189453 -136.83209961 236.27439453 -136.68334961 237.37939453 C-136.1924997 240.65172727 -135.47875239 243.14200841 -134.12084961 246.12939453 C-133.46084961 246.12939453 -132.80084961 246.12939453 -132.12084961 246.12939453 C-131.46084961 244.14939453 -130.80084961 242.16939453 -130.12084961 240.12939453 C-129.46084961 240.12939453 -128.80084961 240.12939453 -128.12084961 240.12939453 C-128.12084961 239.46939453 -128.12084961 238.80939453 -128.12084961 238.12939453 C-128.78084961 238.12939453 -129.44084961 238.12939453 -130.12084961 238.12939453 C-130.10022461 237.32501953 -130.07959961 236.52064453 -130.05834961 235.69189453 C-129.8245134 233.19584568 -129.8245134 233.19584568 -131.12084961 232.12939453 C-133.78867904 213.91569481 -134.02422183 192.18057444 -124.12084961 176.12939453 C-123.35320725 174.41696158 -122.62256192 172.68737091 -121.93334961 170.94189453 C-121.58916992 170.08208984 -121.24499023 169.22228516 -120.89038086 168.33642578 C-120.01110509 166.20420194 -120.01110509 166.20420194 -120.12084961 164.12939453 C-119.46084961 164.12939453 -118.80084961 164.12939453 -118.12084961 164.12939453 C-116.35622278 161.04129758 -116.12084961 159.89627317 -116.12084961 156.12939453 C-115.46084961 156.12939453 -114.80084961 156.12939453 -114.12084961 156.12939453 C-114.12084961 154.80939453 -114.12084961 153.48939453 -114.12084961 152.12939453 C-113.46084961 152.12939453 -112.80084961 152.12939453 -112.12084961 152.12939453 C-106.33880773 141.62625936 -106.33880773 141.62625936 -104.12084961 130.12939453 C-103.46084961 130.12939453 -102.80084961 130.12939453 -102.12084961 130.12939453 C-102.12084961 128.14939453 -102.12084961 126.16939453 -102.12084961 124.12939453 C-101.46084961 124.12939453 -100.80084961 124.12939453 -100.12084961 124.12939453 C-100.03834961 122.93314453 -99.95584961 121.73689453 -99.87084961 120.50439453 C-99.26913858 114.92971886 -97.6763117 109.71732057 -96.05834961 104.36376953 C-95.26394716 101.62308107 -94.62711127 98.93492789 -94.12084961 96.12939453 C-93.46084961 96.12939453 -92.80084961 96.12939453 -92.12084961 96.12939453 C-90.80458269 92.50966051 -90.12084961 90.03372322 -90.12084961 86.12939453 C-89.46084961 86.12939453 -88.80084961 86.12939453 -88.12084961 86.12939453 C-88.12084961 85.46939453 -88.12084961 84.80939453 -88.12084961 84.12939453 C-87.46084961 84.12939453 -86.80084961 84.12939453 -86.12084961 84.12939453 C-86.12084961 82.80939453 -86.12084961 81.48939453 -86.12084961 80.12939453 C-85.46084961 80.12939453 -84.80084961 80.12939453 -84.12084961 80.12939453 C-81.15849266 76.49615765 -81.15849266 76.49615765 -80.12084961 72.12939453 C-79.46084961 72.12939453 -78.80084961 72.12939453 -78.12084961 72.12939453 C-78.12084961 71.46939453 -78.12084961 70.80939453 -78.12084961 70.12939453 C-77.46084961 70.12939453 -76.80084961 70.12939453 -76.12084961 70.12939453 C-76.12084961 69.46939453 -76.12084961 68.80939453 -76.12084961 68.12939453 C-75.46084961 68.12939453 -74.80084961 68.12939453 -74.12084961 68.12939453 C-74.12084961 67.46939453 -74.12084961 66.80939453 -74.12084961 66.12939453 C-72.47084961 65.46939453 -70.82084961 64.80939453 -69.12084961 64.12939453 C-69.12084961 63.46939453 -69.12084961 62.80939453 -69.12084961 62.12939453 C-68.13084961 62.12939453 -67.14084961 62.12939453 -66.12084961 62.12939453 C-66.12084961 61.46939453 -66.12084961 60.80939453 -66.12084961 60.12939453 C-65.46084961 60.12939453 -64.80084961 60.12939453 -64.12084961 60.12939453 C-64.12084961 59.46939453 -64.12084961 58.80939453 -64.12084961 58.12939453 C-63.13084961 58.12939453 -62.14084961 58.12939453 -61.12084961 58.12939453 C-61.12084961 57.46939453 -61.12084961 56.80939453 -61.12084961 56.12939453 C-60.13084961 56.12939453 -59.14084961 56.12939453 -58.12084961 56.12939453 C-58.12084961 55.46939453 -58.12084961 54.80939453 -58.12084961 54.12939453 C-57.35772461 53.98501953 -56.59459961 53.84064453 -55.80834961 53.69189453 C-53.03912053 53.16613513 -53.03912053 53.16613513 -50.12084961 52.12939453 C-50.12084961 51.46939453 -50.12084961 50.80939453 -50.12084961 50.12939453 C-47.51668294 49.6085612 -44.91251628 49.08772786 -42.30834961 48.56689453 C-41.58647461 48.42251953 -40.86459961 48.27814453 -40.12084961 48.12939453 C-40.12084961 47.46939453 -40.12084961 46.80939453 -40.12084961 46.12939453 C-39.12182617 46.14099609 -38.12280273 46.15259766 -37.09350586 46.16455078 C-35.15797852 46.17808594 -35.15797852 46.17808594 -33.18334961 46.19189453 C-31.89557617 46.20349609 -30.60780273 46.21509766 -29.28100586 46.22705078 C-26.25786558 46.49472002 -26.25786558 46.49472002 -25.12084961 45.12939453 C-23.71736226 45.03079322 -22.30904484 44.99860517 -20.90209961 44.99658203 C-19.62786133 44.99464844 -19.62786133 44.99464844 -18.32788086 44.99267578 C-17.43456055 44.99654297 -16.54124023 45.00041016 -15.62084961 45.00439453 C-14.28086914 44.99859375 -14.28086914 44.99859375 -12.91381836 44.99267578 C-12.06432617 44.99396484 -11.21483398 44.99525391 -10.33959961 44.99658203 C-9.55520508 44.99770996 -8.77081055 44.99883789 -7.96264648 45 C-6.12084961 45.12939453 -6.12084961 45.12939453 -5.12084961 46.12939453 C-3.26797459 46.20165955 -1.41251083 46.21320673 0.44165039 46.19189453 C1.45356445 46.18287109 2.46547852 46.17384766 3.50805664 46.16455078 C4.68174805 46.14714844 4.68174805 46.14714844 5.87915039 46.12939453 C5.87915039 46.78939453 5.87915039 47.44939453 5.87915039 48.12939453 C9.49888441 49.44566145 11.9748217 50.12939453 15.87915039 50.12939453 C15.87915039 50.78939453 15.87915039 51.44939453 15.87915039 52.12939453 C22.82698963 55.2522313 22.82698963 55.2522313 29.87915039 58.12939453 C29.87915039 58.78939453 29.87915039 59.44939453 29.87915039 60.12939453 C30.53915039 60.12939453 31.19915039 60.12939453 31.87915039 60.12939453 C31.87915039 60.78939453 31.87915039 61.44939453 31.87915039 62.12939453 C33.52917867 63.48326389 35.19658909 64.81617596 36.87915039 66.12939453 C37.20915039 66.78939453 37.53915039 67.44939453 37.87915039 68.12939453 C39.19915039 68.12939453 40.51915039 68.12939453 41.87915039 68.12939453 C41.87915039 68.78939453 41.87915039 69.44939453 41.87915039 70.12939453 C43.19915039 70.12939453 44.51915039 70.12939453 45.87915039 70.12939453 C45.87915039 70.78939453 45.87915039 71.44939453 45.87915039 72.12939453 C46.82790039 72.37689453 47.77665039 72.62439453 48.75415039 72.87939453 C51.87915039 74.12939453 51.87915039 74.12939453 53.00415039 76.00439453 C53.43727539 77.05626953 53.43727539 77.05626953 53.87915039 78.12939453 C55.7958196 80.38004555 55.7958196 80.38004555 57.87915039 82.12939453 C58.53915039 82.12939453 59.19915039 82.12939453 59.87915039 82.12939453 C59.96165039 82.66564453 60.04415039 83.20189453 60.12915039 83.75439453 C61.14369381 86.96711537 62.97698723 89.36261176 64.87915039 92.12939453 C69.40668781 100.148649 69.05869127 109.85810848 69.06665039 118.81689453 C69.06745605 119.71472656 69.06826172 120.61255859 69.0690918 121.53759766 C69.01325084 127.99529408 69.01325084 127.99529408 67.87915039 129.12939453 C67.72033434 130.85578378 67.60225812 132.58599383 67.50415039 134.31689453 C67.13869089 138.94205415 66.16623663 142.05241471 63.87915039 146.12939453 C63.87915039 147.44939453 63.87915039 148.76939453 63.87915039 150.12939453 C63.21915039 150.12939453 62.55915039 150.12939453 61.87915039 150.12939453 C60.25644798 152.9913319 59.6296145 155.03286069 59.64868164 158.31689453 C59.65061523 159.09806641 59.65254883 159.87923828 59.65454102 160.68408203 C59.66678711 161.49103516 59.6790332 162.29798828 59.69165039 163.12939453 C59.69229492 163.93634766 59.69293945 164.74330078 59.69360352 165.57470703 C59.72122397 169.29426172 59.91740702 172.52554529 60.87915039 176.12939453 C61.47902409 182.91258172 60.54766509 187.90286024 57.87915039 194.12939453 C57.87915039 194.78939453 57.87915039 195.44939453 57.87915039 196.12939453 C57.21915039 196.12939453 56.55915039 196.12939453 55.87915039 196.12939453 C55.87915039 196.78939453 55.87915039 197.44939453 55.87915039 198.12939453 C54.55915039 198.45939453 53.23915039 198.78939453 51.87915039 199.12939453 C51.87915039 200.11939453 51.87915039 201.10939453 51.87915039 202.12939453 C51.21915039 202.12939453 50.55915039 202.12939453 49.87915039 202.12939453 C49.87915039 202.78939453 49.87915039 203.44939453 49.87915039 204.12939453 C49.21915039 204.12939453 48.55915039 204.12939453 47.87915039 204.12939453 C47.87915039 204.78939453 47.87915039 205.44939453 47.87915039 206.12939453 C47.21915039 206.12939453 46.55915039 206.12939453 45.87915039 206.12939453 C45.87915039 206.78939453 45.87915039 207.44939453 45.87915039 208.12939453 C45.21915039 208.12939453 44.55915039 208.12939453 43.87915039 208.12939453 C43.21915039 209.22251953 42.55915039 210.31564453 41.87915039 211.44189453 C41.50790039 212.05677734 41.13665039 212.67166016 40.75415039 213.30517578 C39.6629104 215.24301379 39.6629104 215.24301379 39.87915039 218.12939453 C39.21915039 218.12939453 38.55915039 218.12939453 37.87915039 218.12939453 C36.35759573 222.59262153 35.76662036 226.46907435 35.56665039 231.19189453 C35.18172286 236.88026798 34.09232378 239.32726244 29.87915039 243.12939453 C29.21915039 243.45939453 28.55915039 243.78939453 27.87915039 244.12939453 C27.87915039 244.78939453 27.87915039 245.44939453 27.87915039 246.12939453 C25.89915039 247.11939453 25.89915039 247.11939453 23.87915039 248.12939453 C23.87915039 251.42939453 23.87915039 254.72939453 23.87915039 258.12939453 C24.53915039 258.12939453 25.19915039 258.12939453 25.87915039 258.12939453 C25.44208458 262.23781319 24.73457238 265.60507082 23.19165039 269.44189453 C21.0807659 275.52620866 22.42635368 280.74684521 24.91430664 286.53955078 C25.84551283 288.43200207 26.85485624 290.28566507 27.87915039 292.12939453 C28.53915039 292.12939453 29.19915039 292.12939453 29.87915039 292.12939453 C30.10602539 292.66564453 30.33290039 293.20189453 30.56665039 293.75439453 C32.88098397 297.94223625 35.34124992 301.37753208 39.69165039 303.50439453 C40.77446289 303.81376953 40.77446289 303.81376953 41.87915039 304.12939453 C41.87915039 304.78939453 41.87915039 305.44939453 41.87915039 306.12939453 C42.53915039 306.12939453 43.19915039 306.12939453 43.87915039 306.12939453 C42.00526606 311.35654556 40.96552745 313.51747118 35.87915039 316.12939453 C35.87915039 316.78939453 35.87915039 317.44939453 35.87915039 318.12939453 C35.21915039 318.12939453 34.55915039 318.12939453 33.87915039 318.12939453 C33.87915039 318.78939453 33.87915039 319.44939453 33.87915039 320.12939453 C33.21915039 320.12939453 32.55915039 320.12939453 31.87915039 320.12939453 C31.87915039 320.78939453 31.87915039 321.44939453 31.87915039 322.12939453 C31.21915039 322.12939453 30.55915039 322.12939453 29.87915039 322.12939453 C29.87915039 322.78939453 29.87915039 323.44939453 29.87915039 324.12939453 C29.21915039 324.12939453 28.55915039 324.12939453 27.87915039 324.12939453 C27.87915039 324.78939453 27.87915039 325.44939453 27.87915039 326.12939453 C25.06665039 325.94189453 25.06665039 325.94189453 21.87915039 325.12939453 C19.66581116 322.30547896 18.53029427 319.6455715 17.87915039 316.12939453 C17.21915039 316.12939453 16.55915039 316.12939453 15.87915039 316.12939453 C15.21915039 314.14939453 14.55915039 312.16939453 13.87915039 310.12939453 C13.21915039 310.12939453 12.55915039 310.12939453 11.87915039 310.12939453 C11.21915039 308.14939453 10.55915039 306.16939453 9.87915039 304.12939453 C9.21915039 304.12939453 8.55915039 304.12939453 7.87915039 304.12939453 C7.79665039 303.55189453 7.71415039 302.97439453 7.62915039 302.37939453 C6.67163649 299.50685283 5.06486664 298.17850352 2.87915039 296.12939453 C2.54915039 295.46939453 2.21915039 294.80939453 1.87915039 294.12939453 C1.21915039 294.12939453 0.55915039 294.12939453 -0.12084961 294.12939453 C-0.12084961 293.46939453 -0.12084961 292.80939453 -0.12084961 292.12939453 C-0.78084961 292.12939453 -1.44084961 292.12939453 -2.12084961 292.12939453 C-2.12084961 291.46939453 -2.12084961 290.80939453 -2.12084961 290.12939453 C-2.78084961 290.12939453 -3.44084961 290.12939453 -4.12084961 290.12939453 C-4.36834961 289.36626953 -4.61584961 288.60314453 -4.87084961 287.81689453 C-6.24215633 284.86858508 -7.35595751 283.77104921 -10.12084961 282.12939453 C-10.78084961 282.12939453 -11.44084961 282.12939453 -12.12084961 282.12939453 C-12.12084961 281.46939453 -12.12084961 280.80939453 -12.12084961 280.12939453 C-12.78084961 280.12939453 -13.44084961 280.12939453 -14.12084961 280.12939453 C-14.18272461 279.53126953 -14.24459961 278.93314453 -14.30834961 278.31689453 C-15.44519548 275.25615564 -17.33355991 274.69299607 -20.12084961 273.12939453 C-20.78084961 272.13939453 -21.44084961 271.14939453 -22.12084961 270.12939453 C-22.78084961 270.12939453 -23.44084961 270.12939453 -24.12084961 270.12939453 C-24.12084961 269.46939453 -24.12084961 268.80939453 -24.12084961 268.12939453 C-25.11084961 268.12939453 -26.10084961 268.12939453 -27.12084961 268.12939453 C-27.45084961 266.80939453 -27.78084961 265.48939453 -28.12084961 264.12939453 C-28.78084961 264.12939453 -29.44084961 264.12939453 -30.12084961 264.12939453 C-30.12084961 262.80939453 -30.12084961 261.48939453 -30.12084961 260.12939453 C-30.78084961 260.12939453 -31.44084961 260.12939453 -32.12084961 260.12939453 C-32.12084961 259.46939453 -32.12084961 258.80939453 -32.12084961 258.12939453 C-32.78084961 258.12939453 -33.44084961 258.12939453 -34.12084961 258.12939453 C-34.12084961 256.80939453 -34.12084961 255.48939453 -34.12084961 254.12939453 C-34.78084961 254.12939453 -35.44084961 254.12939453 -36.12084961 254.12939453 C-36.10022461 253.32501953 -36.07959961 252.52064453 -36.05834961 251.69189453 C-35.8245134 249.19584568 -35.8245134 249.19584568 -37.12084961 248.12939453 C-37.21922171 246.79895828 -37.25163553 245.46346109 -37.25366211 244.12939453 C-37.25495117 243.32501953 -37.25624023 242.52064453 -37.25756836 241.69189453 C-37.25370117 240.84626953 -37.24983398 240.00064453 -37.24584961 239.12939453 C-37.2497168 238.28376953 -37.25358398 237.43814453 -37.25756836 236.56689453 C-37.2562793 235.76251953 -37.25499023 234.95814453 -37.25366211 234.12939453 C-37.25253418 233.38689453 -37.25140625 232.64439453 -37.25024414 231.87939453 C-37.12084961 230.12939453 -37.12084961 230.12939453 -36.12084961 229.12939453 C-36.08021129 227.46322338 -36.07812861 225.79551358 -36.12084961 224.12939453 C-35.46084961 224.12939453 -34.80084961 224.12939453 -34.12084961 224.12939453 C-34.12084961 222.80939453 -34.12084961 221.48939453 -34.12084961 220.12939453 C-33.46084961 220.12939453 -32.80084961 220.12939453 -32.12084961 220.12939453 C-29.95418294 218.2960612 -29.95418294 218.2960612 -28.12084961 216.12939453 C-28.12084961 215.46939453 -28.12084961 214.80939453 -28.12084961 214.12939453 C-26.37052117 214.27123149 -24.62059427 214.41802882 -22.87084961 214.56689453 C-21.40905273 214.68871094 -21.40905273 214.68871094 -19.91772461 214.81298828 C-17.55623208 215.08014037 -15.40183896 215.48311422 -13.12084961 216.12939453 C-13.12084961 216.78939453 -13.12084961 217.44939453 -13.12084961 218.12939453 C-9.74987578 219.62760512 -7.91642842 220.12939453 -4.12084961 220.12939453 C-4.12084961 220.78939453 -4.12084961 221.44939453 -4.12084961 222.12939453 C-0.61308176 223.73294555 2.02269918 224.34976317 5.87915039 224.12939453 C5.87915039 223.46939453 5.87915039 222.80939453 5.87915039 222.12939453 C6.86915039 222.12939453 7.85915039 222.12939453 8.87915039 222.12939453 C9.20915039 220.80939453 9.53915039 219.48939453 9.87915039 218.12939453 C10.53915039 218.12939453 11.19915039 218.12939453 11.87915039 218.12939453 C13.64377722 215.04129758 13.87915039 213.89627317 13.87915039 210.12939453 C14.53915039 210.12939453 15.19915039 210.12939453 15.87915039 210.12939453 C15.87915039 209.46939453 15.87915039 208.80939453 15.87915039 208.12939453 C17.19915039 207.79939453 18.51915039 207.46939453 19.87915039 207.12939453 C19.92040039 206.07751953 19.96165039 205.02564453 20.00415039 203.94189453 C21.1094956 199.12574754 23.17097101 198.20639444 26.87915039 195.12939453 C27.12920425 192.0875656 27.12920425 192.0875656 26.87915039 189.12939453 C28.04321289 186.99267578 28.04321289 186.99267578 29.87915039 185.12939453 C32.35961914 184.52001953 32.35961914 184.52001953 35.06665039 184.37939453 C35.96770508 184.32267578 36.86875977 184.26595703 37.79711914 184.20751953 C38.82772461 184.16884766 38.82772461 184.16884766 39.87915039 184.12939453 C39.87915039 183.46939453 39.87915039 182.80939453 39.87915039 182.12939453 C40.53915039 182.12939453 41.19915039 182.12939453 41.87915039 182.12939453 C40.3553646 177.35024818 38.71447772 172.72214839 36.69165039 168.12939453 C34.77381498 163.37906375 34.03310825 159.21537201 34.87915039 154.12939453 C36.37915039 150.69189453 36.37915039 150.69189453 37.87915039 148.12939453 C37.87915039 147.46939453 37.87915039 146.80939453 37.87915039 146.12939453 C38.53915039 146.12939453 39.19915039 146.12939453 39.87915039 146.12939453 C40.55583037 144.8847867 41.22009758 143.63342557 41.87915039 142.37939453 C42.43602539 141.33525391 42.43602539 141.33525391 43.00415039 140.27001953 C44.13139688 137.89771696 44.13139688 137.89771696 43.87915039 134.12939453 C44.53915039 134.12939453 45.19915039 134.12939453 45.87915039 134.12939453 C45.93973633 133.33275391 46.00032227 132.53611328 46.06274414 131.71533203 C46.1465332 130.65572266 46.23032227 129.59611328 46.31665039 128.50439453 C46.40301758 127.40998047 46.48938477 126.31556641 46.57836914 125.18798828 C46.87915039 122.12939453 46.87915039 122.12939453 47.62915039 118.56689453 C47.71165039 117.76251953 47.79415039 116.95814453 47.87915039 116.12939453 C46.88915039 115.13939453 45.89915039 114.14939453 44.87915039 113.12939453 C43.88915039 116.09939453 42.89915039 119.06939453 41.87915039 122.12939453 C41.21915039 122.12939453 40.55915039 122.12939453 39.87915039 122.12939453 C36.57624847 125.58141287 36.57624847 125.58141287 35.87915039 130.12939453 C35.21915039 130.12939453 34.55915039 130.12939453 33.87915039 130.12939453 C33.87915039 130.78939453 33.87915039 131.44939453 33.87915039 132.12939453 C33.21915039 132.12939453 32.55915039 132.12939453 31.87915039 132.12939453 C31.87915039 132.78939453 31.87915039 133.44939453 31.87915039 134.12939453 C29.89915039 135.11939453 29.89915039 135.11939453 27.87915039 136.12939453 C27.87915039 136.78939453 27.87915039 137.44939453 27.87915039 138.12939453 C27.21915039 138.12939453 26.55915039 138.12939453 25.87915039 138.12939453 C25.87915039 138.78939453 25.87915039 139.44939453 25.87915039 140.12939453 C22.90915039 141.11939453 22.90915039 141.11939453 19.87915039 142.12939453 C19.87915039 142.78939453 19.87915039 143.44939453 19.87915039 144.12939453 C16.90915039 145.11939453 16.90915039 145.11939453 13.87915039 146.12939453 C13.87915039 146.78939453 13.87915039 147.44939453 13.87915039 148.12939453 C11.21248372 148.7960612 8.54581706 149.46272786 5.87915039 150.12939453 C5.87915039 150.78939453 5.87915039 151.44939453 5.87915039 152.12939453 C4.76540039 152.34595703 4.76540039 152.34595703 3.62915039 152.56689453 C1.358873 153.03126945 -0.8784444 153.54803022 -3.12084961 154.12939453 C-3.12084961 154.78939453 -3.12084961 155.44939453 -3.12084961 156.12939453 C-3.8362793 156.26216797 -4.55170898 156.39494141 -5.28881836 156.53173828 C-8.06273282 157.11712989 -10.72384236 157.86097897 -13.43334961 158.69189453 C-14.75786133 159.09601563 -14.75786133 159.09601563 -16.10913086 159.50830078 C-16.77299805 159.71326172 -17.43686523 159.91822266 -18.12084961 160.12939453 C-18.12084961 160.78939453 -18.12084961 161.44939453 -18.12084961 162.12939453 C-20.10084961 162.78939453 -22.08084961 163.44939453 -24.12084961 164.12939453 C-24.12084961 164.78939453 -24.12084961 165.44939453 -24.12084961 166.12939453 C-25.44084961 166.12939453 -26.76084961 166.12939453 -28.12084961 166.12939453 C-28.12084961 166.78939453 -28.12084961 167.44939453 -28.12084961 168.12939453 C-28.78084961 168.12939453 -29.44084961 168.12939453 -30.12084961 168.12939453 C-30.12084961 168.78939453 -30.12084961 169.44939453 -30.12084961 170.12939453 C-31.77084961 170.78939453 -33.42084961 171.44939453 -35.12084961 172.12939453 C-35.12084961 172.78939453 -35.12084961 173.44939453 -35.12084961 174.12939453 C-35.71897461 174.37689453 -36.31709961 174.62439453 -36.93334961 174.87939453 C-39.4371188 176.31011978 -40.60157349 177.69855274 -42.12084961 180.12939453 C-42.12084961 180.78939453 -42.12084961 181.44939453 -42.12084961 182.12939453 C-42.78084961 182.12939453 -43.44084961 182.12939453 -44.12084961 182.12939453 C-46.39819971 184.94449447 -46.39819971 184.94449447 -46.12084961 188.12939453 C-46.78084961 188.12939453 -47.44084961 188.12939453 -48.12084961 188.12939453 C-50.22868241 191.29114374 -50.83804361 193.58107527 -51.68334961 197.25439453 C-53.01944555 203.02799048 -53.01944555 203.02799048 -54.12084961 204.12939453 C-54.32689046 205.45721332 -54.4871455 206.79235348 -54.62084961 208.12939453 C-55.0097385 212.01828342 -55.0097385 212.01828342 -56.12084961 213.12939453 C-56.22059993 215.64075558 -56.25967144 218.11842868 -56.24584961 220.62939453 C-56.2497168 221.33193359 -56.25358398 222.03447266 -56.25756836 222.75830078 C-56.56475892 226.23368261 -56.56475892 226.23368261 -55.12084961 229.12939453 C-54.99709961 230.16064453 -54.87334961 231.19189453 -54.74584961 232.25439453 C-54.09358004 236.29846586 -52.77754681 239.40182584 -51.12084961 243.12939453 C-50.43334961 246.06689453 -50.43334961 246.06689453 -50.12084961 248.12939453 C-49.46084961 248.12939453 -48.80084961 248.12939453 -48.12084961 248.12939453 C-47.46084961 250.10939453 -46.80084961 252.08939453 -46.12084961 254.12939453 C-45.46084961 254.12939453 -44.80084961 254.12939453 -44.12084961 254.12939453 C-43.46084961 256.10939453 -42.80084961 258.08939453 -42.12084961 260.12939453 C-41.46084961 260.12939453 -40.80084961 260.12939453 -40.12084961 260.12939453 C-40.12084961 260.78939453 -40.12084961 261.44939453 -40.12084961 262.12939453 C-39.46084961 262.12939453 -38.80084961 262.12939453 -38.12084961 262.12939453 C-38.12084961 262.78939453 -38.12084961 263.44939453 -38.12084961 264.12939453 C-37.46084961 264.12939453 -36.80084961 264.12939453 -36.12084961 264.12939453 C-36.12084961 264.78939453 -36.12084961 265.44939453 -36.12084961 266.12939453 C-35.46084961 266.12939453 -34.80084961 266.12939453 -34.12084961 266.12939453 C-34.12084961 266.78939453 -34.12084961 267.44939453 -34.12084961 268.12939453 C-33.46084961 268.12939453 -32.80084961 268.12939453 -32.12084961 268.12939453 C-32.12084961 268.78939453 -32.12084961 269.44939453 -32.12084961 270.12939453 C-31.46084961 270.12939453 -30.80084961 270.12939453 -30.12084961 270.12939453 C-30.12084961 270.78939453 -30.12084961 271.44939453 -30.12084961 272.12939453 C-29.46084961 272.12939453 -28.80084961 272.12939453 -28.12084961 272.12939453 C-28.12084961 272.78939453 -28.12084961 273.44939453 -28.12084961 274.12939453 C-27.46084961 274.12939453 -26.80084961 274.12939453 -26.12084961 274.12939453 C-26.12084961 274.78939453 -26.12084961 275.44939453 -26.12084961 276.12939453 C-25.46084961 276.12939453 -24.80084961 276.12939453 -24.12084961 276.12939453 C-24.12084961 276.78939453 -24.12084961 277.44939453 -24.12084961 278.12939453 C-23.46084961 278.12939453 -22.80084961 278.12939453 -22.12084961 278.12939453 C-22.12084961 278.78939453 -22.12084961 279.44939453 -22.12084961 280.12939453 C-21.46084961 280.12939453 -20.80084961 280.12939453 -20.12084961 280.12939453 C-20.12084961 280.78939453 -20.12084961 281.44939453 -20.12084961 282.12939453 C-19.46084961 282.12939453 -18.80084961 282.12939453 -18.12084961 282.12939453 C-18.12084961 282.78939453 -18.12084961 283.44939453 -18.12084961 284.12939453 C-17.46084961 284.12939453 -16.80084961 284.12939453 -16.12084961 284.12939453 C-16.12084961 284.78939453 -16.12084961 285.44939453 -16.12084961 286.12939453 C-15.46084961 286.12939453 -14.80084961 286.12939453 -14.12084961 286.12939453 C-14.12084961 286.78939453 -14.12084961 287.44939453 -14.12084961 288.12939453 C-13.46084961 288.12939453 -12.80084961 288.12939453 -12.12084961 288.12939453 C-12.12084961 288.78939453 -12.12084961 289.44939453 -12.12084961 290.12939453 C-11.46084961 290.12939453 -10.80084961 290.12939453 -10.12084961 290.12939453 C-10.12084961 290.78939453 -10.12084961 291.44939453 -10.12084961 292.12939453 C-9.46084961 292.12939453 -8.80084961 292.12939453 -8.12084961 292.12939453 C-8.12084961 292.78939453 -8.12084961 293.44939453 -8.12084961 294.12939453 C-7.46084961 294.12939453 -6.80084961 294.12939453 -6.12084961 294.12939453 C-6.12084961 294.78939453 -6.12084961 295.44939453 -6.12084961 296.12939453 C-5.46084961 296.12939453 -4.80084961 296.12939453 -4.12084961 296.12939453 C-4.12084961 296.78939453 -4.12084961 297.44939453 -4.12084961 298.12939453 C-3.46084961 298.12939453 -2.80084961 298.12939453 -2.12084961 298.12939453 C-2.12084961 298.78939453 -2.12084961 299.44939453 -2.12084961 300.12939453 C-1.46084961 300.12939453 -0.80084961 300.12939453 -0.12084961 300.12939453 C-0.12084961 300.78939453 -0.12084961 301.44939453 -0.12084961 302.12939453 C0.53915039 302.12939453 1.19915039 302.12939453 1.87915039 302.12939453 C2.31227539 303.27408203 2.31227539 303.27408203 2.75415039 304.44189453 C3.84184052 307.27968761 3.84184052 307.27968761 5.87915039 310.12939453 C6.53915039 310.12939453 7.19915039 310.12939453 7.87915039 310.12939453 C7.87915039 310.78939453 7.87915039 311.44939453 7.87915039 312.12939453 C8.53915039 312.12939453 9.19915039 312.12939453 9.87915039 312.12939453 C10.53915039 314.76939453 11.19915039 317.40939453 11.87915039 320.12939453 C12.53915039 320.12939453 13.19915039 320.12939453 13.87915039 320.12939453 C14.53915039 322.10939453 15.19915039 324.08939453 15.87915039 326.12939453 C16.53915039 326.12939453 17.19915039 326.12939453 17.87915039 326.12939453 C18.47577695 328.94206258 18.95332288 331.71217834 19.31665039 334.56689453 C19.85013358 337.94562141 20.70645589 340.92402957 21.87915039 344.12939453 C22.53915039 343.79939453 23.19915039 343.46939453 23.87915039 343.12939453 C23.87915039 342.13939453 23.87915039 341.14939453 23.87915039 340.12939453 C24.53915039 340.12939453 25.19915039 340.12939453 25.87915039 340.12939453 C25.87915039 338.80939453 25.87915039 337.48939453 25.87915039 336.12939453 C26.53915039 336.12939453 27.19915039 336.12939453 27.87915039 336.12939453 C30.84150734 332.49615765 30.84150734 332.49615765 31.87915039 328.12939453 C32.53915039 328.12939453 33.19915039 328.12939453 33.87915039 328.12939453 C33.87915039 327.46939453 33.87915039 326.80939453 33.87915039 326.12939453 C34.53915039 326.12939453 35.19915039 326.12939453 35.87915039 326.12939453 C35.94102539 325.51064453 36.00290039 324.89189453 36.06665039 324.25439453 C36.33477539 323.55314453 36.60290039 322.85189453 36.87915039 322.12939453 C38.05477539 321.66533203 38.05477539 321.66533203 39.25415039 321.19189453 C42.61871095 319.83004859 43.08093412 318.20134732 44.87915039 315.12939453 C45.68352539 314.73751953 46.48790039 314.34564453 47.31665039 313.94189453 C51.35484762 311.08560868 52.45969138 306.75254873 53.87915039 302.12939453 C53.87915039 301.46939453 53.87915039 300.80939453 53.87915039 300.12939453 C52.86852539 299.84064453 51.85790039 299.55189453 50.81665039 299.25439453 C47.17081706 298.21272786 43.52498372 297.1710612 39.87915039 296.12939453 C39.87915039 295.46939453 39.87915039 294.80939453 39.87915039 294.12939453 C39.11602539 293.73751953 38.35290039 293.34564453 37.56665039 292.94189453 C33.90275355 290.47089434 33.35186722 288.23749938 31.87915039 284.12939453 C31.21915039 284.12939453 30.55915039 284.12939453 29.87915039 284.12939453 C28.66621756 278.51958019 28.54803655 272.84597755 28.87915039 267.12939453 C29.20915039 266.79939453 29.53915039 266.46939453 29.87915039 266.12939453 C29.95186781 263.77625898 29.96285907 261.42105785 29.94165039 259.06689453 C29.93262695 257.77654297 29.92360352 256.48619141 29.91430664 255.15673828 C29.90270508 254.15771484 29.89110352 253.15869141 29.87915039 252.12939453 C30.53915039 252.12939453 31.19915039 252.12939453 31.87915039 252.12939453 C33.46741261 250.41441681 33.46741261 250.41441681 35.00415039 248.25439453 C35.54297852 247.53509766 36.08180664 246.81580078 36.63696289 246.07470703 C38.05854671 244.23313447 38.05854671 244.23313447 37.87915039 242.12939453 C38.53915039 242.12939453 39.19915039 242.12939453 39.87915039 242.12939453 C39.93973633 241.20255859 40.00032227 240.27572266 40.06274414 239.32080078 C40.1465332 238.12326172 40.23032227 236.92572266 40.31665039 235.69189453 C40.4384668 233.89945312 40.4384668 233.89945312 40.56274414 232.07080078 C40.87915039 229.12939453 40.87915039 229.12939453 41.87915039 228.12939453 C41.91995822 226.12981089 41.92169395 224.12894199 41.87915039 222.12939453 C42.53915039 222.12939453 43.19915039 222.12939453 43.87915039 222.12939453 C44.69482213 220.69369188 45.50657132 219.25576019 46.31665039 217.81689453 C46.9953418 216.61613281 46.9953418 216.61613281 47.68774414 215.39111328 C48.99005587 213.06728024 48.99005587 213.06728024 49.87915039 210.12939453 C50.53915039 210.12939453 51.19915039 210.12939453 51.87915039 210.12939453 C51.87915039 209.46939453 51.87915039 208.80939453 51.87915039 208.12939453 C52.53915039 208.12939453 53.19915039 208.12939453 53.87915039 208.12939453 C53.87915039 207.46939453 53.87915039 206.80939453 53.87915039 206.12939453 C54.53915039 206.12939453 55.19915039 206.12939453 55.87915039 206.12939453 C55.87915039 205.46939453 55.87915039 204.80939453 55.87915039 204.12939453 C56.86915039 204.12939453 57.85915039 204.12939453 58.87915039 204.12939453 C58.87915039 203.46939453 58.87915039 202.80939453 58.87915039 202.12939453 C59.47727539 201.98501953 60.07540039 201.84064453 60.69165039 201.69189453 C62.44065444 201.24215063 64.16592062 200.70047112 65.87915039 200.12939453 C65.87915039 199.46939453 65.87915039 198.80939453 65.87915039 198.12939453 C67.85915039 198.12939453 69.83915039 198.12939453 71.87915039 198.12939453 C71.87915039 197.46939453 71.87915039 196.80939453 71.87915039 196.12939453 C76.171769 196.18179863 80.46245623 196.27699934 84.75415039 196.37939453 C85.95813477 196.39357422 87.16211914 196.40775391 88.40258789 196.42236328 C95.14582118 196.60560332 100.57585846 197.27319811 106.69995117 200.18310547 C109.07597757 201.21486419 111.33105719 201.7007015 113.87915039 202.12939453 C113.87915039 202.78939453 113.87915039 203.44939453 113.87915039 204.12939453 C115.85915039 204.78939453 117.83915039 205.44939453 119.87915039 206.12939453 C119.87915039 206.78939453 119.87915039 207.44939453 119.87915039 208.12939453 C120.53915039 208.12939453 121.19915039 208.12939453 121.87915039 208.12939453 C121.87915039 208.78939453 121.87915039 209.44939453 121.87915039 210.12939453 C122.53915039 210.12939453 123.19915039 210.12939453 123.87915039 210.12939453 C123.87915039 210.78939453 123.87915039 211.44939453 123.87915039 212.12939453 C124.53915039 212.12939453 125.19915039 212.12939453 125.87915039 212.12939453 C125.87915039 212.78939453 125.87915039 213.44939453 125.87915039 214.12939453 C126.53915039 214.12939453 127.19915039 214.12939453 127.87915039 214.12939453 C127.87915039 214.78939453 127.87915039 215.44939453 127.87915039 216.12939453 C128.53915039 216.12939453 129.19915039 216.12939453 129.87915039 216.12939453 C129.87915039 217.44939453 129.87915039 218.76939453 129.87915039 220.12939453 C130.53915039 220.12939453 131.19915039 220.12939453 131.87915039 220.12939453 C131.87915039 220.78939453 131.87915039 221.44939453 131.87915039 222.12939453 C132.53915039 222.12939453 133.19915039 222.12939453 133.87915039 222.12939453 C134.00290039 222.85126953 134.12665039 223.57314453 134.25415039 224.31689453 C134.77642256 227.0948566 134.77642256 227.0948566 135.87915039 229.41064453 C137.01208533 232.49081141 137.28860601 235.17280476 137.50415039 238.44189453 C137.61629883 240.04484375 137.61629883 240.04484375 137.73071289 241.68017578 C137.77969727 242.48841797 137.82868164 243.29666016 137.87915039 244.12939453 C138.53915039 244.12939453 139.19915039 244.12939453 139.87915039 244.12939453 C139.87915039 242.80939453 139.87915039 241.48939453 139.87915039 240.12939453 C140.53915039 240.12939453 141.19915039 240.12939453 141.87915039 240.12939453 C142.00290039 238.85064453 142.12665039 237.57189453 142.25415039 236.25439453 C143.81665039 222.19189453 143.81665039 222.19189453 145.87915039 220.12939453 C146.09073657 217.1466172 146.25556744 214.17848251 146.37915039 211.19189453 C146.44795462 209.53677054 146.52068746 207.88180382 146.59790039 206.22705078 C146.62819336 205.4897876 146.65848633 204.75252441 146.68969727 203.99291992 C146.87915039 202.12939453 146.87915039 202.12939453 147.87915039 200.12939453 C147.96501848 197.80523157 147.98626083 195.47856147 147.97680664 193.15283203 C147.97539169 192.46758453 147.97397675 191.78233704 147.97251892 191.07632446 C147.96691714 188.88563692 147.95436445 186.69505123 147.94165039 184.50439453 C147.93663562 183.02002101 147.93207267 181.53564588 147.92797852 180.05126953 C147.91694716 176.41061138 147.89968138 172.77001289 147.87915039 169.12939453 C147.24106445 168.99662109 146.60297852 168.86384766 145.94555664 168.72705078 C145.11926758 168.55044922 144.29297852 168.37384766 143.44165039 168.19189453 C142.61793945 168.01787109 141.79422852 167.84384766 140.94555664 167.66455078 C138.87915039 167.12939453 138.87915039 167.12939453 137.87915039 166.12939453 C135.69275586 166.05680507 133.5041465 166.0456567 131.31665039 166.06689453 C130.11911133 166.07591797 128.92157227 166.08494141 127.68774414 166.09423828 C126.29749023 166.11164063 126.29749023 166.11164063 124.87915039 166.12939453 C124.87915039 165.46939453 124.87915039 164.80939453 124.87915039 164.12939453 C122.56915039 164.12939453 120.25915039 164.12939453 117.87915039 164.12939453 C117.87915039 163.46939453 117.87915039 162.80939453 117.87915039 162.12939453 C117.17790039 161.94763672 116.47665039 161.76587891 115.75415039 161.57861328 C109.98475062 160.0500359 104.4067905 158.37656583 98.87915039 156.12939453 C97.95231445 155.75814453 97.02547852 155.38689453 96.07055664 155.00439453 C90.20257698 152.61235187 84.52928111 150.03135263 78.93774414 147.04736328 C76.79816024 145.92576266 76.79816024 145.92576266 73.87915039 146.12939453 C74.0194815 144.14983013 74.16656269 142.17074312 74.31665039 140.19189453 C74.4384668 138.53867188 74.4384668 138.53867188 74.56274414 136.85205078 C74.87915039 134.12939453 74.87915039 134.12939453 75.87915039 133.12939453 C75.95095003 131.61011415 75.96307046 130.08771971 75.94165039 128.56689453 C75.93262695 127.74060547 75.92360352 126.91431641 75.91430664 126.06298828 C75.90270508 125.42490234 75.89110352 124.78681641 75.87915039 124.12939453 C79.90907821 124.68252188 83.89937963 125.28520073 87.87915039 126.12939453 C87.87915039 126.78939453 87.87915039 127.44939453 87.87915039 128.12939453 C90.69425033 130.40674463 90.69425033 130.40674463 93.87915039 130.12939453 C93.87915039 130.78939453 93.87915039 131.44939453 93.87915039 132.12939453 C95.85915039 132.12939453 97.83915039 132.12939453 99.87915039 132.12939453 C99.87915039 132.78939453 99.87915039 133.44939453 99.87915039 134.12939453 C106.23869436 136.61287281 106.23869436 136.61287281 112.87915039 138.12939453 C112.87915039 138.78939453 112.87915039 139.44939453 112.87915039 140.12939453 C113.65258789 140.31115234 114.42602539 140.49291016 115.22290039 140.68017578 C121.30740224 142.14858898 127.06401789 143.82339371 132.87915039 146.12939453 C137.54441688 147.95493359 141.84517056 148.52002979 146.80493164 148.88330078 C148.87915039 149.12939453 148.87915039 149.12939453 149.87915039 150.12939453 C152.57569893 150.20259075 155.24606497 150.2218199 157.94165039 150.19189453 C159.07957031 150.18512695 159.07957031 150.18512695 160.24047852 150.17822266 C162.1200691 150.16640133 163.99961938 150.14846531 165.87915039 150.12939453 C167.2538136 154.76888287 167.29872566 159.52579045 167.59790039 164.32861328 C167.57096552 167.03218203 167.57096552 167.03218203 168.87915039 168.12939453 C168.97948889 170.4583837 169.00996533 172.79043331 169.01196289 175.12158203 C169.01339798 176.17419724 169.01339798 176.17419724 169.01486206 177.24807739 C169.01554389 178.73602386 169.01368939 180.22397328 169.00952148 181.71191406 C169.00418913 183.98786133 169.00945804 186.26360982 169.01586914 188.53955078 C169.01520805 189.98356163 169.01392624 191.42757236 169.01196289 192.87158203 C169.01083496 194.19013184 169.00970703 195.50868164 169.00854492 196.8671875 C168.87915039 200.12939453 168.87915039 200.12939453 167.87915039 203.12939453 C167.57031824 206.7753297 167.3695648 210.42179998 167.16040039 214.07470703 C166.87915039 217.12939453 166.87915039 217.12939453 165.87915039 218.12939453 C165.52848725 219.99763344 165.2238534 221.87459595 164.94165039 223.75439453 C164.21443763 228.34560343 163.1677691 232.662183 161.87915039 237.12939453 C161.6571741 239.09547022 161.43525047 241.06155241 161.21508789 243.02783203 C160.34240359 248.48718269 158.29434954 253.47144399 155.69165039 258.31689453 C153.90716138 261.70267406 153.49194316 264.25732221 153.87915039 268.12939453 C153.21915039 268.12939453 152.55915039 268.12939453 151.87915039 268.12939453 C150.62250061 271.03539714 149.87915039 272.92544038 149.87915039 276.12939453 C149.21915039 276.12939453 148.55915039 276.12939453 147.87915039 276.12939453 C147.20827919 277.75266323 146.5425801 279.37807031 145.87915039 281.00439453 C145.50790039 281.90931641 145.13665039 282.81423828 144.75415039 283.74658203 C143.76424813 286.01923311 143.76424813 286.01923311 143.87915039 288.12939453 C143.21915039 288.12939453 142.55915039 288.12939453 141.87915039 288.12939453 C141.21915039 290.10939453 140.55915039 292.08939453 139.87915039 294.12939453 C139.21915039 294.12939453 138.55915039 294.12939453 137.87915039 294.12939453 C137.87915039 295.44939453 137.87915039 296.76939453 137.87915039 298.12939453 C138.53915039 298.12939453 139.19915039 298.12939453 139.87915039 298.12939453 C139.87915039 297.46939453 139.87915039 296.80939453 139.87915039 296.12939453 C140.53915039 296.12939453 141.19915039 296.12939453 141.87915039 296.12939453 C141.87915039 295.46939453 141.87915039 294.80939453 141.87915039 294.12939453 C142.53915039 294.12939453 143.19915039 294.12939453 143.87915039 294.12939453 C145.46741261 292.41441681 145.46741261 292.41441681 147.00415039 290.25439453 C147.81239258 289.17544922 147.81239258 289.17544922 148.63696289 288.07470703 C150.05854671 286.23313447 150.05854671 286.23313447 149.87915039 284.12939453 C150.53915039 284.12939453 151.19915039 284.12939453 151.87915039 284.12939453 C152.53915039 282.14939453 153.19915039 280.16939453 153.87915039 278.12939453 C154.53915039 278.12939453 155.19915039 278.12939453 155.87915039 278.12939453 C158.15650049 275.3142946 158.15650049 275.3142946 157.87915039 272.12939453 C158.53915039 272.12939453 159.19915039 272.12939453 159.87915039 272.12939453 C160.53915039 270.14939453 161.19915039 268.16939453 161.87915039 266.12939453 C162.53915039 266.12939453 163.19915039 266.12939453 163.87915039 266.12939453 C165.64377722 263.04129758 165.87915039 261.89627317 165.87915039 258.12939453 C166.53915039 258.12939453 167.19915039 258.12939453 167.87915039 258.12939453 C169.13580017 255.22339192 169.87915039 253.33334869 169.87915039 250.12939453 C170.53915039 250.12939453 171.19915039 250.12939453 171.87915039 250.12939453 C171.87915039 248.80939453 171.87915039 247.48939453 171.87915039 246.12939453 C172.53915039 246.12939453 173.19915039 246.12939453 173.87915039 246.12939453 C173.98227539 245.11876953 174.08540039 244.10814453 174.19165039 243.06689453 C174.90046345 239.0073288 176.17962726 235.86834541 177.87915039 232.12939453 C179.50797607 227.92873884 180.09381483 224.63734775 179.87915039 220.12939453 C180.53915039 220.12939453 181.19915039 220.12939453 181.87915039 220.12939453 C181.90420654 219.52877197 181.9292627 218.92814941 181.95507812 218.30932617 C182.07070319 215.60328016 182.19357975 212.8976117 182.31665039 210.19189453 C182.375625 208.77360352 182.375625 208.77360352 182.43579102 207.32666016 C182.47768555 206.42753906 182.51958008 205.52841797 182.56274414 204.60205078 C182.59940186 203.76939697 182.63605957 202.93674316 182.67382812 202.07885742 C182.87915039 200.12939453 182.87915039 200.12939453 183.87915039 199.12939453 C183.97900681 197.15355625 184.00995833 195.17415975 184.01196289 193.19580078 C184.01389648 191.38692383 184.01389648 191.38692383 184.01586914 189.54150391 C184.01200195 188.27113281 184.00813477 187.00076172 184.00415039 185.69189453 C184.00801758 184.42539063 184.01188477 183.15888672 184.01586914 181.85400391 C184.01458008 180.64679688 184.01329102 179.43958984 184.01196289 178.19580078 C184.01083496 177.08148682 184.00970703 175.96717285 184.00854492 174.8190918 C184.06195256 172.15856714 184.06195256 172.15856714 182.87915039 170.12939453 C182.74597116 167.75584466 182.6480165 165.38028494 182.56665039 163.00439453 C182.17104811 154.37451424 180.2459785 146.40778867 177.87915039 138.12939453 C177.21915039 138.12939453 176.55915039 138.12939453 175.87915039 138.12939453 C175.94102539 137.30439453 176.00290039 136.47939453 176.06665039 135.62939453 C175.8353593 131.31196077 174.51188667 128.08620587 172.87915039 124.12939453 C172.31161064 122.63129411 171.74891241 121.13134836 171.19165039 119.62939453 C170.75852539 118.47439453 170.32540039 117.31939453 169.87915039 116.12939453 C169.21915039 116.12939453 168.55915039 116.12939453 167.87915039 116.12939453 C167.21248372 112.7960612 166.54581706 109.46272786 165.87915039 106.12939453 C165.21915039 106.12939453 164.55915039 106.12939453 163.87915039 106.12939453 C163.21915039 104.14939453 162.55915039 102.16939453 161.87915039 100.12939453 C161.21915039 100.12939453 160.55915039 100.12939453 159.87915039 100.12939453 C159.76442383 99.55705078 159.64969727 98.98470703 159.53149414 98.39501953 C158.81732683 95.91467797 157.80607167 94.06570756 156.44165039 91.87939453 C156.00981445 91.17298828 155.57797852 90.46658203 155.13305664 89.73876953 C154.71926758 89.20767578 154.30547852 88.67658203 153.87915039 88.12939453 C153.21915039 88.12939453 152.55915039 88.12939453 151.87915039 88.12939453 C151.73477539 87.51064453 151.59040039 86.89189453 151.44165039 86.25439453 C150.94762814 84.09681131 150.94762814 84.09681131 149.87915039 82.12939453 C149.21915039 82.12939453 148.55915039 82.12939453 147.87915039 82.12939453 C147.87915039 81.46939453 147.87915039 80.80939453 147.87915039 80.12939453 C147.21915039 80.12939453 146.55915039 80.12939453 145.87915039 80.12939453 C145.87915039 79.46939453 145.87915039 78.80939453 145.87915039 78.12939453 C145.21915039 78.12939453 144.55915039 78.12939453 143.87915039 78.12939453 C143.21915039 76.14939453 142.55915039 74.16939453 141.87915039 72.12939453 C140.88915039 72.12939453 139.89915039 72.12939453 138.87915039 72.12939453 C138.87915039 71.46939453 138.87915039 70.80939453 138.87915039 70.12939453 C138.21915039 69.79939453 137.55915039 69.46939453 136.87915039 69.12939453 C136.54915039 68.13939453 136.21915039 67.14939453 135.87915039 66.12939453 C135.21915039 66.12939453 134.55915039 66.12939453 133.87915039 66.12939453 C133.87915039 65.46939453 133.87915039 64.80939453 133.87915039 64.12939453 C132.42508789 63.75814453 132.42508789 63.75814453 130.94165039 63.37939453 C129.93102539 62.96689453 128.92040039 62.55439453 127.87915039 62.12939453 C127.00415039 60.00439453 127.00415039 60.00439453 126.87915039 58.12939453 C125.88915039 58.12939453 124.89915039 58.12939453 123.87915039 58.12939453 C123.87915039 57.46939453 123.87915039 56.80939453 123.87915039 56.12939453 C122.88915039 55.79939453 121.89915039 55.46939453 120.87915039 55.12939453 C120.21915039 54.13939453 119.55915039 53.14939453 118.87915039 52.12939453 C117.88915039 52.12939453 116.89915039 52.12939453 115.87915039 52.12939453 C115.87915039 51.46939453 115.87915039 50.80939453 115.87915039 50.12939453 C113.06405046 47.85204443 113.06405046 47.85204443 109.87915039 48.12939453 C109.87915039 47.46939453 109.87915039 46.80939453 109.87915039 46.12939453 C107.89915039 45.46939453 105.91915039 44.80939453 103.87915039 44.12939453 C103.87915039 43.46939453 103.87915039 42.80939453 103.87915039 42.12939453 C100.79105344 40.3647677 99.64602903 40.12939453 95.87915039 40.12939453 C95.87915039 39.46939453 95.87915039 38.80939453 95.87915039 38.12939453 C88.96581626 33.77098823 81.87705609 31.65212747 73.87915039 30.12939453 C73.87915039 29.46939453 73.87915039 28.80939453 73.87915039 28.12939453 C69.46959071 26.43341004 65.40276482 25.75863592 60.73461914 25.37548828 C58.87915039 25.12939453 58.87915039 25.12939453 57.87915039 24.12939453 C56.72415039 23.96439453 55.56915039 23.79939453 54.37915039 23.62939453 C50.87915039 23.12939453 50.87915039 23.12939453 49.87915039 22.12939453 C48.38418197 21.9223989 46.88249119 21.76260194 45.37915039 21.62939453 C40.9902615 21.24050564 40.9902615 21.24050564 39.87915039 20.12939453 C37.22888145 19.9142656 34.5964962 19.75224952 31.94165039 19.62939453 C26.15287476 19.33489595 20.41795856 18.94564119 14.66430664 18.21533203 C12.77332704 17.97826277 12.77332704 17.97826277 10.87915039 19.12939453 Z M101.87915039 300.12939453 C102.20915039 301.77939453 102.53915039 303.42939453 102.87915039 305.12939453 C104.9191223 303.7661571 104.9191223 303.7661571 106.87915039 302.12939453 C106.87915039 301.46939453 106.87915039 300.80939453 106.87915039 300.12939453 C107.53915039 300.12939453 108.19915039 300.12939453 108.87915039 300.12939453 C108.87915039 299.46939453 108.87915039 298.80939453 108.87915039 298.12939453 C105.77363373 298.12939453 104.52653955 298.66876603 101.87915039 300.12939453 Z M135.87915039 298.12939453 C135.87915039 298.78939453 135.87915039 299.44939453 135.87915039 300.12939453 C136.53915039 300.12939453 137.19915039 300.12939453 137.87915039 300.12939453 C137.87915039 299.46939453 137.87915039 298.80939453 137.87915039 298.12939453 C137.21915039 298.12939453 136.55915039 298.12939453 135.87915039 298.12939453 Z M134.87915039 300.12939453 C134.87915039 303.12939453 134.87915039 303.12939453 134.87915039 303.12939453 Z " fill="currentColor" transform="translate(179.120849609375,18.87060546875)"/>
<path d="M0 0 C2.14915785 3.22373677 2.38286803 4.26703674 2 8 C1.34 8.66 0.68 9.32 0 10 C-0.99 10 -1.98 10 -3 10 C-2.67 11.65 -2.34 13.3 -2 15 C-2.99 14.67 -3.98 14.34 -5 14 C-4.938125 14.78375 -4.87625 15.5675 -4.8125 16.375 C-4.874375 17.24125 -4.93625 18.1075 -5 19 C-5.99 19.66 -6.98 20.32 -8 21 C-7.41196203 17.97580475 -6.77321882 14.98241547 -6 12 C-5.34 12 -4.68 12 -4 12 C-4.061875 10.9171875 -4.061875 10.9171875 -4.125 9.8125 C-3.99078695 6.79270631 -3.24829381 4.73064271 -2 2 C-1.34 2 -0.68 2 0 2 C0 1.34 0 0.68 0 0 Z " fill="currentColor" transform="translate(91,103)"/>
<path d="M0 0 C0.66 0 1.32 0 2 0 C2 2.64 2 5.28 2 8 C1.01 8 0.02 8 -1 8 C-1 9.65 -1 11.3 -1 13 C-1.639375 13.20625 -2.27875 13.4125 -2.9375 13.625 C-5.34925077 14.89538209 -5.34925077 14.89538209 -5.75 18.125 C-5.8325 19.07375 -5.915 20.0225 -6 21 C-6.33 20.34 -6.66 19.68 -7 19 C-7.66 18.67 -8.32 18.34 -9 18 C-8.01 16.02 -7.02 14.04 -6 12 C-5.34 12 -4.68 12 -4 12 C-3.71125 11.13375 -3.4225 10.2675 -3.125 9.375 C-2.08333333 6.25 -1.04166667 3.125 0 0 Z " fill="currentColor" transform="translate(223,153)"/>
<path d="M0 0 C0.99 0.33 1.98 0.66 3 1 C1.0398607 4.72426467 -0.27539364 6.19777111 -4 8 C-5.26804566 10.0335948 -5.26804566 10.0335948 -6 12 C-7.65 12 -9.3 12 -11 12 C-11 11.34 -11 10.68 -11 10 C-10.195625 9.7525 -9.39125 9.505 -8.5625 9.25 C-7.716875 8.8375 -6.87125 8.425 -6 8 C-5.64587656 6.67203709 -5.31478446 5.33783393 -5 4 C-2.625 1.6875 -2.625 1.6875 0 0 Z " fill="currentColor" transform="translate(227,331)"/>
<path d="M0 0 C0.99 0.33 1.98 0.66 3 1 C2.505 1.4125 2.01 1.825 1.5 2.25 C-0.43386092 4.12202338 -0.43386092 4.12202338 0 8 C-1.53125 9.703125 -1.53125 9.703125 -3.5 11.25 C-4.1496875 11.77078125 -4.799375 12.2915625 -5.46875 12.828125 C-5.9740625 13.21484375 -6.479375 13.6015625 -7 14 C-7 13.34 -7 12.68 -7 12 C-7.66 11.67 -8.32 11.34 -9 11 C-7.88625 9.948125 -7.88625 9.948125 -6.75 8.875 C-4.02182777 6.02281994 -2.08697046 3.3236937 0 0 Z " fill="currentColor" transform="translate(65,73)"/>
<path d="M0 0 C0.33 0 0.66 0 1 0 C2.64681249 6.30760257 4.26309887 12.51527007 5 19 C3 18 3 18 1.875 15.8125 C0.91671764 12.73230669 0.85084184 10.20690052 1 7 C0.34 7 -0.32 7 -1 7 C-1.04254356 5.00045254 -1.04080783 2.99958364 -1 1 C-0.67 0.67 -0.34 0.34 0 0 Z " fill="currentColor" transform="translate(36,233)"/>
<path d="M0 0 C0.33 0 0.66 0 1 0 C0.98839844 0.83144531 0.97679688 1.66289062 0.96484375 2.51953125 C0.95582031 3.60621094 0.94679688 4.69289062 0.9375 5.8125 C0.92589844 6.89144531 0.91429688 7.97039062 0.90234375 9.08203125 C0.86375234 12.06512169 0.86375234 12.06512169 2 15 C0.6875 16.5 0.6875 16.5 -1 18 C-1.99 18 -2.98 18 -4 18 C-4 17.01 -4 16.02 -4 15 C-3.34 15 -2.68 15 -2 15 C-2 13.02 -2 11.04 -2 9 C-1.34 9 -0.68 9 0 9 C0 6.03 0 3.06 0 0 Z " fill="currentColor" transform="translate(79,134)"/>
<path d="M0 0 C0.99 0.33 1.98 0.66 3 1 C2.5875 1.94875 2.175 2.8975 1.75 3.875 C-0.255317 8.54767646 -2.1264409 13.27330521 -4 18 C-4.33 18 -4.66 18 -5 18 C-4.91306859 16.20741442 -4.80489496 14.41584856 -4.6875 12.625 C-4.60048828 11.12839844 -4.60048828 11.12839844 -4.51171875 9.6015625 C-4.34285156 8.74304688 -4.17398437 7.88453125 -4 7 C-3.01 6.34 -2.02 5.68 -1 5 C-0.27034634 2.43717258 -0.27034634 2.43717258 0 0 Z " fill="currentColor" transform="translate(367,273)"/>
<path d="M0 0 C0.66 0.99 1.32 1.98 2 3 C1.67 3.99 1.34 4.98 1 6 C0.34 6 -0.32 6 -1 6 C-1 7.32 -1 8.64 -1 10 C-1.66 10 -2.32 10 -3 10 C-3 11.65 -3 13.3 -3 15 C-3.66 15 -4.32 15 -5 15 C-5 15.66 -5 16.32 -5 17 C-5.66 16.67 -6.32 16.34 -7 16 C-6.67 14.68 -6.34 13.36 -6 12 C-5.34 12 -4.68 12 -4 12 C-3.7834375 10.8553125 -3.7834375 10.8553125 -3.5625 9.6875 C-3 7 -3 7 -2 4 C-1.34 4 -0.68 4 0 4 C0 2.68 0 1.36 0 0 Z " fill="currentColor" transform="translate(351,265)"/>
<path d="M0 0 C4.26672384 0.47408043 6.2455048 2.88307122 9 6 C10.375 8.125 10.375 8.125 11 10 C10.67 10.99 10.34 11.98 10 13 C10 12.34 10 11.68 10 11 C9.34 11 8.68 11 8 11 C6 8 6 8 6 5 C5.01 5 4.02 5 3 5 C3 4.34 3 3.68 3 3 C2.01 2.67 1.02 2.34 0 2 C0 1.34 0 0.68 0 0 Z " fill="currentColor" transform="translate(315,86)"/>
<path d="M0 0 C3.66237906 6.42725811 2.0238386 13.96110965 1 21 C0.67 21 0.34 21 0 21 C-0.7938642 13.78194245 -1.07875823 7.19172157 0 0 Z " fill="currentColor" transform="translate(47,230)"/>
<path d="M0 0 C1 3 1 3 0.0625 5.1875 C-0.4634375 6.0846875 -0.4634375 6.0846875 -1 7 C-1.66 7 -2.32 7 -3 7 C-3 7.99 -3 8.98 -3 10 C-5.5 11.6875 -5.5 11.6875 -8 13 C-8 12.01 -8 11.02 -8 10 C-7.34 10 -6.68 10 -6 10 C-5.34 8.02 -4.68 6.04 -4 4 C-3.34 4 -2.68 4 -2 4 C-2 3.34 -2 2.68 -2 2 C-1.34 2 -0.68 2 0 2 C0 1.34 0 0.68 0 0 Z " fill="currentColor" transform="translate(55,85)"/>
<path d="M0 0 C0.99 0.66 1.98 1.32 3 2 C0.69 4.31 -1.62 6.62 -4 9 C-4.99 8.34 -5.98 7.68 -7 7 C-2.25 1.125 -2.25 1.125 0 0 Z " fill="currentColor" transform="translate(71,70)"/>
<path d="M0 0 C4.33333333 4.33333333 8.66666667 8.66666667 13 13 C12.4225 12.835 11.845 12.67 11.25 12.5 C8.73335631 11.85537969 8.73335631 11.85537969 5 12 C4.9175 11.2575 4.835 10.515 4.75 9.75 C3.85566215 6.47076121 2.40099388 5.32354246 0 3 C0 2.01 0 1.02 0 0 Z " fill="currentColor" transform="translate(208,311)"/>
<path d="M0 0 C0.33 0.66 0.66 1.32 1 2 C-0.87577357 6.06417607 -2.93582393 8.12422643 -7 10 C-7.66 9.67 -8.32 9.34 -9 9 C-6.03 6.03 -3.06 3.06 0 0 Z " fill="currentColor" transform="translate(237,224)"/>
<path d="M0 0 C0.99 0.66 1.98 1.32 3 2 C1.6875 3.5 1.6875 3.5 0 5 C-0.99 5 -1.98 5 -3 5 C-3.33 6.32 -3.66 7.64 -4 9 C-4.99 9 -5.98 9 -7 9 C-5.44499019 5.18315774 -2.96404505 2.80804268 0 0 Z " fill="currentColor" transform="translate(107,86)"/>
<path d="M0 0 C0.99 0 1.98 0 3 0 C3 0.66 3 1.32 3 2 C2.21625 2.61875 1.4325 3.2375 0.625 3.875 C-1.86229156 5.88852174 -2.85538266 7.08642859 -4 10 C-4.66 10 -5.32 10 -6 10 C-6.33 10.66 -6.66 11.32 -7 12 C-6.25752466 7.17391028 -3.38978244 3.38978244 0 0 Z " fill="currentColor" transform="translate(141,191)"/>
<path d="M0 0 C0.33 0 0.66 0 1 0 C1.33 2.64 1.66 5.28 2 8 C1.01 8 0.02 8 -1 8 C-1 9.32 -1 10.64 -1 12 C-1.99 12.33 -2.98 12.66 -4 13 C-3.27991594 8.39146203 -1.68704061 4.32762591 0 0 Z " fill="currentColor" transform="translate(31,123)"/>
<path d="M0 0 C0.33 0 0.66 0 1 0 C1.33 2.64 1.66 5.28 2 8 C1.01 7.67 0.02 7.34 -1 7 C-0.938125 7.78375 -0.87625 8.5675 -0.8125 9.375 C-0.874375 10.24125 -0.93625 11.1075 -1 12 C-1.99 12.66 -2.98 13.32 -4 14 C-3.41196203 10.97580475 -2.77321882 7.98241547 -2 5 C-1.34 5 -0.68 5 0 5 C0 3.35 0 1.7 0 0 Z " fill="currentColor" transform="translate(87,110)"/>
<path d="M0 0 C0.66 0 1.32 0 2 0 C1.25 4.75 1.25 4.75 -1 7 C-1.99 7 -2.98 7 -4 7 C-4 6.34 -4 5.68 -4 5 C-3.34 5 -2.68 5 -2 5 C-2 4.34 -2 3.68 -2 3 C-2.66 2.67 -3.32 2.34 -4 2 C-2.68 2 -1.36 2 0 2 C0 1.34 0 0.68 0 0 Z " fill="currentColor" transform="translate(290,314)"/>
<path d="M0 0 C-0.57344937 2.86724686 -0.8614515 3.8614515 -3 6 C-5.125 5.625 -5.125 5.625 -7 5 C-2.25 0 -2.25 0 0 0 Z " fill="currentColor" transform="translate(333,329)"/>
<path d="M0 0 C0.33 0.99 0.66 1.98 1 3 C0.34 3.66 -0.32 4.32 -1 5 C-1.39764263 6.98821313 -1.73775349 8.98944339 -2 11 C-2.33 10.34 -2.66 9.68 -3 9 C-3.66 8.67 -4.32 8.34 -5 8 C-4.01 6.02 -3.02 4.04 -2 2 C-1.34 2 -0.68 2 0 2 C0 1.34 0 0.68 0 0 Z " fill="currentColor" transform="translate(219,163)"/>
<path d="M0 0 C2.12508244 3.18762365 2.5020163 5.26512223 3 9 C3.66 9 4.32 9 5 9 C4.67 9.99 4.34 10.98 4 12 C1.02449969 8.9315153 0.03525487 7.53763669 -0.25 3.1875 C-0.1675 2.135625 -0.085 1.08375 0 0 Z " fill="currentColor" transform="translate(362,116)"/>
<path d="M0 0 C0.99 0.33 1.98 0.66 3 1 C2.34 1 1.68 1 1 1 C1 1.66 1 2.32 1 3 C0.34 3 -0.32 3 -1 3 C-1 3.66 -1 4.32 -1 5 C-1.66 5 -2.32 5 -3 5 C-3 5.66 -3 6.32 -3 7 C-3.99 7.33 -4.98 7.66 -6 8 C-5.67 6.35 -5.34 4.7 -5 3 C-3.35 2.67 -1.7 2.34 0 2 C0 1.34 0 0.68 0 0 Z " fill="currentColor" transform="translate(90,76)"/>
<path d="M0 0 C0.99 0 1.98 0 3 0 C2.67 1.32 2.34 2.64 2 4 C-0.31 4.66 -2.62 5.32 -5 6 C-5 5.34 -5 4.68 -5 4 C-4.01 4 -3.02 4 -2 4 C-2 3.34 -2 2.68 -2 2 C-1.34 2 -0.68 2 0 2 C0 1.34 0 0.68 0 0 Z " fill="currentColor" transform="translate(115,77)"/>
<path d="M0 0 C0.33 0 0.66 0 1 0 C1.17835515 4.54805635 0.99785435 7.8794254 -1 12 C-1.33 12 -1.66 12 -2 12 C-2.17835515 7.45194365 -1.99785435 4.1205746 0 0 Z " fill="currentColor" transform="translate(246,152)"/>
<path d="M0 0 C0.66 0.99 1.32 1.98 2 3 C1.67 3.66 1.34 4.32 1 5 C-0.98 5 -2.96 5 -5 5 C-3.35 3.35 -1.7 1.7 0 0 Z " fill="currentColor" transform="translate(206,213)"/>
<path d="M0 0 C0.33 0 0.66 0 1 0 C1 2.97 1 5.94 1 9 C0.01 9.33 -0.98 9.66 -2 10 C-1.33333333 6.66666667 -0.66666667 3.33333333 0 0 Z " fill="currentColor" transform="translate(51,200)"/>
<path d="M0 0 C0.33 0 0.66 0 1 0 C1 2.64 1 5.28 1 8 C-0.32 8.33 -1.64 8.66 -3 9 C-2.01 6.03 -1.02 3.06 0 0 Z " fill="currentColor" transform="translate(55,191)"/>
<path d="M0 0 C-1.65 1.65 -3.3 3.3 -5 5 C-5 4.01 -5 3.02 -5 2 C-6.32 1.67 -7.64 1.34 -9 1 C-3.375 -1.125 -3.375 -1.125 0 0 Z " fill="currentColor" transform="translate(134,32)"/>
</svg>
